<svg xmlns="http://www.w3.org/2000/svg" version="1.1" xmlns:xlink="http://www.w3.org/1999/xlink" width="2000" height="1500" viewBox="0 0 2000 1500"><rect width="2000" height="1500" x="0" y="0" id="background" stroke="transparent" fill="#ffffff"></rect><svg xml:space="preserve" width="1500" height="1125" data-version="2" data-id="lg_r4H6bw7OuDhhCGMU0P" viewBox="0 0 546 489" x="250" y="187.5"><rect width="100%" height="100%" fill="transparent"></rect><path fill="#fcd2e9" d="M366.932 260.545c0-53.204-43.131-96.335-96.317-96.335-53.214 0-96.345 43.13-96.345 96.335 0 31.28 14.968 71.493 38.094 99.419h116.502c23.093-27.921 38.066-68.14 38.066-99.419M302.729 479.27H238.51l-14.276-19.92h92.77zm25.919-98.778c0 4.98-4.055 9.02-9.016 9.02h-98.333a9.02 9.02 0 0 1 0-18.032h98.333c4.96 0 9.016 4.046 9.016 9.012m.72 29.334c0 4.98-4.054 9.016-9.044 9.016h-98.327a9.009 9.009 0 1 1 0-18.018h98.327a9.02 9.02 0 0 1 9.045 9.002m-1.137 30.667a9.02 9.02 0 0 1-9.012 9.04h-98.346a9.002 9.002 0 0 1-9.002-9.04 8.996 8.996 0 0 1 9.002-8.997h98.346a8.997 8.997 0 0 1 9.012 8.997m-48.6-299.29H261.23L250.179 4.99h40.503zm-109.985 58.242-9.201 15.936-123.503-58.527 20.252-35.096zm46.811-44.44-15.936 9.2-77.687-112.451 35.097-20.252zm154.852 46.29 9.201 15.983 123.503-58.574-20.252-35.05zm-46.811-49.278 15.936 9.2L418.12 48.766l-35.097-20.252z"></path><path fill="#8f2763" d="M34.23 200.03q14.05 0 21.93 5.54 7.89 5.53 10.87 15.05 2.98 9.51 2.98 23t-2.98 22.94q-2.98 9.44-10.87 14.98-7.88 5.53-21.93 5.53H5.4v-87.04zm-1.71 81.65q13.35 0 18.11-10.01 4.75-10.01 4.75-28.05 0-18.17-4.75-28.18-4.76-10.02-18.11-10.02H19.88v76.26z"></path><rect width="64.61" height="87.04" x="-32.3" y="-43.52" fill="none" rx="0" ry="0" transform="translate(38.2 244.05)"></rect><path fill="#8f2763" d="M141.15 279.83v7.24H90.46v-87.04h48.14v7.24h-33.66v31.67h30.67v7.52h-30.67v33.37Z"></path><rect width="50.69" height="87.04" x="-25.34" y="-43.52" fill="none" rx="0" ry="0" transform="translate(116.3 244.05)"></rect><path fill="#8f2763" d="m218.4 200.03-26.98 87.04h-16.9l-27.12-87.04h14.48l23.86 80.51 23.86-80.51Z"></path><rect width="71" height="87.04" x="-35.5" y="-43.52" fill="none" rx="0" ry="0" transform="translate(183.4 244.05)"></rect><path fill="#8f2763" d="M260.29 200.03q15.05 0 21.3 7.74t6.25 20.09q0 12.35-6.25 20.02t-21.3 7.67h-14.2v31.52h-14.48v-87.04zm-1.99 50.41q7.81 0 11.43-5.97 3.62-5.96 3.62-16.61 0-10.51-3.62-16.47-3.62-5.97-11.43-5.97h-12.21v45.02z"></path><rect width="56.23" height="87.04" x="-28.11" y="-43.52" fill="none" rx="0" ry="0" transform="translate(260.23 244.05)"></rect><path fill="#8f2763" d="M317.09 287.07h-14.48v-87.04h14.48Z"></path><rect width="14.48" height="87.04" x="-7.24" y="-43.52" fill="none" rx="0" ry="0" transform="translate(310.35 244.05)"></rect><path fill="#8f2763" d="M389.37 200.03v7.24h-23.01v79.8h-14.48v-79.8h-23.29v-7.24Z"></path><rect width="60.78" height="87.04" x="-30.39" y="-43.52" fill="none" rx="0" ry="0" transform="translate(359.48 244.05)"></rect><path fill="#8f2763" d="M447.87 223.74q-1.7-19.45-16.61-19.45-8.1 0-12.5 4.26t-6.1 12.64q-1.71 8.37-1.71 22.43 0 13.92 1.71 22.23 1.7 8.3 6.1 12.56 4.4 4.26 12.5 4.26 8.94 0 12.85-6.03 3.9-6.04 4.19-16.97l11.78.42q-1.13 14.2-7.38 21.45-6.25 7.24-21.44 7.24-13.35 0-21.02-5.18-7.67-5.19-10.72-14.99-3.05-9.79-3.05-24.99 0-15.19 3.05-25.06t10.65-15.05q7.6-5.19 21.09-5.19 14.34 0 20.59 5.9 6.25 5.89 7.67 17.39z"></path><rect width="63.61" height="90.46" x="-31.8" y="-45.23" fill="none" rx="0" ry="0" transform="translate(428.77 244.05)"></rect><path fill="#8f2763" d="M539.6 200.03v87.04h-14.62v-39.9h-34.51v39.9h-14.48v-87.04h14.48v39.9h34.51v-39.9Z"></path><rect width="63.61" height="87.04" x="-31.8" y="-43.52" fill="none" rx="0" ry="0" transform="translate(508.3 244.05)"></rect></svg></svg>