<svg width="1500" height="1125" viewBox="0 0 1500 1125" fill="none" xmlns="http://www.w3.org/2000/svg">
<g clip-path="url(#clip0_13_1097)">
<rect width="1500" height="1125" fill="white"/>
<path d="M982.647 498.327C982.647 374.594 878.391 274.287 749.83 274.287C621.201 274.287 516.946 374.591 516.946 498.327C516.946 571.072 553.126 664.593 609.026 729.538H890.634C946.454 664.604 982.647 571.07 982.647 498.327ZM827.456 1007H672.226L637.718 960.673H861.961L827.456 1007ZM890.107 777.279C890.107 788.861 880.305 798.256 868.313 798.256H630.624C624.956 798.094 619.577 795.813 615.628 791.899C611.679 787.984 609.47 782.744 609.47 777.288C609.47 771.833 611.679 766.592 615.628 762.678C619.577 758.763 624.956 756.483 630.624 756.32H868.313C880.303 756.32 890.107 765.73 890.107 777.279ZM891.847 845.499C891.847 857.081 882.048 866.467 869.986 866.467H632.311C626.535 866.467 620.997 864.259 616.913 860.33C612.829 856.401 610.534 851.072 610.534 845.515C610.534 839.959 612.829 834.629 616.913 830.7C620.997 826.771 626.535 824.564 632.311 824.564H869.986C872.851 824.556 875.689 825.092 878.338 826.14C880.988 827.188 883.396 828.728 885.427 830.672C887.457 832.617 889.07 834.927 890.172 837.471C891.274 840.015 891.841 842.743 891.847 845.499ZM889.101 916.819C889.108 919.576 888.549 922.307 887.457 924.857C886.366 927.406 884.762 929.723 882.739 931.676C880.716 933.628 878.313 935.178 875.666 936.236C873.02 937.294 870.183 937.84 867.318 937.843H629.596C626.731 937.843 623.894 937.298 621.248 936.241C618.602 935.183 616.199 933.633 614.178 931.68C612.156 929.726 610.555 927.408 609.467 924.858C608.379 922.308 607.825 919.576 607.837 916.819C607.836 914.07 608.399 911.348 609.493 908.809C610.586 906.269 612.189 903.962 614.21 902.019C616.231 900.076 618.63 898.535 621.27 897.484C623.91 896.433 626.739 895.894 629.596 895.895H867.318C870.176 895.891 873.008 896.429 875.651 897.478C878.294 898.528 880.695 900.068 882.719 902.011C884.742 903.955 886.347 906.263 887.442 908.804C888.538 911.345 889.101 914.068 889.101 916.819ZM771.626 220.781H727.145L700.432 -96H798.336L771.626 220.781ZM505.771 356.23L483.53 393.292L185 257.18L233.953 175.559L505.771 356.23ZM618.922 252.879L580.402 274.275L392.617 12.7558L477.454 -34.3429L618.922 252.879ZM993.229 360.533L1015.47 397.703L1314 261.482L1265.05 179.969L993.229 360.533ZM880.078 245.93L918.598 267.326L1106.38 5.8068L1021.54 -41.2919L880.078 245.93Z" fill="#FF96BA"/>
<path d="M200.682 460.192C222.231 460.192 239.049 464.44 251.135 472.937C263.236 481.419 271.572 492.96 276.142 507.561C280.713 522.147 282.998 539.785 282.998 560.475C282.998 581.166 280.713 598.758 276.142 613.251C271.572 627.73 263.236 639.218 251.135 647.715C239.049 656.196 222.231 660.437 200.682 660.437H134.355V460.192H200.682ZM196.748 648.037C217.224 648.037 231.112 640.36 238.412 625.008C245.697 609.655 249.34 588.144 249.34 560.475C249.34 532.607 245.697 510.997 238.412 495.644C231.112 480.276 217.224 472.592 196.748 472.592H167.668V648.037H196.748Z" fill="#C83369"/>
<path d="M446.665 643.781V660.437H330.047V460.192H440.798V476.848H363.36V549.709H433.92V567.009H363.36V643.781H446.665Z" fill="#C83369"/>
<path d="M624.387 460.192L562.316 660.437H523.436L461.043 460.192H494.356L549.249 645.414L604.141 460.192H624.387Z" fill="#C83369"/>
<path d="M720.759 460.192C743.842 460.192 760.176 466.127 769.762 477.998C779.348 489.87 784.141 505.276 784.141 524.218C784.141 543.159 779.348 558.512 769.762 570.276C760.176 582.04 743.842 587.922 720.759 587.922H688.09V660.437H654.777V460.192H720.759ZM716.181 576.166C728.159 576.166 736.925 571.587 742.477 562.431C748.029 553.29 750.805 540.552 750.805 524.218C750.805 508.098 748.029 495.468 742.477 486.327C736.925 477.17 728.159 472.592 716.181 472.592H688.09V576.166H716.181Z" fill="#C83369"/>
<path d="M851.434 660.437H818.121V460.192H851.434V660.437Z" fill="#C83369"/>
<path d="M1017.72 460.192V476.848H964.785V660.437H931.472V476.848H877.891V460.192H1017.72Z" fill="#C83369"/>
<path d="M1152.31 514.739C1149.7 484.908 1136.96 469.992 1114.1 469.992C1101.67 469.992 1092.09 473.259 1085.34 479.793C1078.59 486.327 1073.91 496.02 1071.3 508.873C1068.68 521.71 1067.37 538.911 1067.37 560.476C1067.37 581.825 1068.68 598.873 1071.3 611.618C1073.91 624.348 1078.59 633.98 1085.34 640.514C1092.09 647.048 1101.67 650.315 1114.1 650.315C1127.81 650.315 1137.66 645.69 1143.66 636.442C1149.64 627.178 1152.85 614.164 1153.3 597.4L1180.4 598.367C1178.67 620.146 1173.01 636.595 1163.42 647.715C1153.83 658.819 1137.39 664.371 1114.1 664.371C1093.62 664.371 1077.5 660.399 1065.74 652.454C1053.97 644.494 1045.75 632.999 1041.07 617.968C1036.4 602.953 1034.06 583.788 1034.06 560.476C1034.06 537.178 1036.4 517.96 1041.07 502.822C1045.75 487.684 1053.92 476.143 1065.58 468.198C1077.23 460.238 1093.4 456.258 1114.1 456.258C1136.09 456.258 1151.88 460.782 1161.46 469.831C1171.05 478.865 1176.93 492.201 1179.11 509.839L1152.31 514.739Z" fill="#C83369"/>
<path d="M1363.34 460.192V660.437H1329.71V568.643H1250.31V660.437H1217V460.192H1250.31V551.986H1329.71V460.192H1363.34Z" fill="#C83369"/>
</g>
<defs>
<clipPath id="clip0_13_1097">
<rect width="1500" height="1125" fill="white"/>
</clipPath>
</defs>
</svg>
