<svg width="6965" height="3470" viewBox="0 0 6965 3470" fill="none" xmlns="http://www.w3.org/2000/svg">
<rect width="6965" height="3470" fill="#FFE6EF"/>
<path d="M399.323 178.78C399.323 151.969 377.714 130.234 351.068 130.234C324.408 130.234 302.8 151.969 302.8 178.78C302.8 194.542 310.299 214.807 321.885 228.879H380.252C391.821 214.809 399.323 194.542 399.323 178.78ZM367.157 289H334.984L327.832 278.962H374.309L367.157 289ZM380.143 239.224C380.143 241.733 378.111 243.769 375.626 243.769H326.361C325.187 243.734 324.072 243.24 323.253 242.391C322.435 241.543 321.977 240.408 321.977 239.226C321.977 238.044 322.435 236.908 323.253 236.06C324.072 235.212 325.187 234.717 326.361 234.682H375.626C378.111 234.682 380.143 236.721 380.143 239.224ZM380.503 254.006C380.503 256.515 378.472 258.549 375.972 258.549H326.711C325.514 258.549 324.366 258.071 323.52 257.219C322.673 256.368 322.198 255.213 322.198 254.009C322.198 252.805 322.673 251.65 323.52 250.799C324.366 249.948 325.514 249.469 326.711 249.469H375.972C376.566 249.468 377.154 249.584 377.703 249.811C378.253 250.038 378.752 250.372 379.173 250.793C379.593 251.214 379.928 251.715 380.156 252.266C380.384 252.817 380.502 253.408 380.503 254.006ZM379.934 269.459C379.936 270.057 379.82 270.649 379.593 271.201C379.367 271.753 379.035 272.256 378.616 272.679C378.196 273.102 377.698 273.437 377.15 273.667C376.601 273.896 376.013 274.014 375.419 274.015H326.148C325.555 274.015 324.967 273.897 324.418 273.668C323.87 273.439 323.372 273.103 322.953 272.679C322.534 272.256 322.202 271.754 321.976 271.201C321.751 270.649 321.636 270.057 321.638 269.459C321.638 268.864 321.755 268.274 321.982 267.724C322.208 267.174 322.541 266.674 322.959 266.253C323.378 265.831 323.875 265.498 324.423 265.27C324.97 265.042 325.556 264.925 326.148 264.926H375.419C376.012 264.925 376.599 265.041 377.146 265.269C377.694 265.496 378.192 265.83 378.611 266.251C379.031 266.672 379.363 267.172 379.59 267.723C379.817 268.273 379.934 268.863 379.934 269.459ZM355.586 118.641H346.367L340.83 50H361.122L355.586 118.641ZM300.484 147.99L295.874 156.021L234 126.528L244.146 108.842L300.484 147.99ZM323.936 125.596L315.952 130.232L277.031 73.5654L294.615 63.36L323.936 125.596ZM401.516 148.922L406.126 156.977L468 127.46L457.854 109.797L401.516 148.922ZM378.064 124.09L386.048 128.726L424.968 72.0597L407.384 61.8543L378.064 124.09Z" fill="#FF96BA"/>
<path d="M1910.32 2098.78C1910.32 2071.97 1888.71 2050.23 1862.07 2050.23C1835.41 2050.23 1813.8 2071.97 1813.8 2098.78C1813.8 2114.54 1821.3 2134.81 1832.88 2148.88H1891.25C1902.82 2134.81 1910.32 2114.54 1910.32 2098.78ZM1878.16 2209H1845.98L1838.83 2198.96H1885.31L1878.16 2209ZM1891.14 2159.22C1891.14 2161.73 1889.11 2163.77 1886.63 2163.77H1837.36C1836.19 2163.73 1835.07 2163.24 1834.25 2162.39C1833.43 2161.54 1832.98 2160.41 1832.98 2159.23C1832.98 2158.04 1833.43 2156.91 1834.25 2156.06C1835.07 2155.21 1836.19 2154.72 1837.36 2154.68H1886.63C1889.11 2154.68 1891.14 2156.72 1891.14 2159.22ZM1891.5 2174.01C1891.5 2176.52 1889.47 2178.55 1886.97 2178.55H1837.71C1836.51 2178.55 1835.37 2178.07 1834.52 2177.22C1833.67 2176.37 1833.2 2175.21 1833.2 2174.01C1833.2 2172.81 1833.67 2171.65 1834.52 2170.8C1835.37 2169.95 1836.51 2169.47 1837.71 2169.47H1886.97C1887.57 2169.47 1888.15 2169.58 1888.7 2169.81C1889.25 2170.04 1889.75 2170.37 1890.17 2170.79C1890.59 2171.21 1890.93 2171.71 1891.16 2172.27C1891.38 2172.82 1891.5 2173.41 1891.5 2174.01ZM1890.93 2189.46C1890.94 2190.06 1890.82 2190.65 1890.59 2191.2C1890.37 2191.75 1890.03 2192.26 1889.62 2192.68C1889.2 2193.1 1888.7 2193.44 1888.15 2193.67C1887.6 2193.9 1887.01 2194.01 1886.42 2194.01H1837.15C1836.55 2194.01 1835.97 2193.9 1835.42 2193.67C1834.87 2193.44 1834.37 2193.1 1833.95 2192.68C1833.53 2192.26 1833.2 2191.75 1832.98 2191.2C1832.75 2190.65 1832.64 2190.06 1832.64 2189.46C1832.64 2188.86 1832.76 2188.27 1832.98 2187.72C1833.21 2187.17 1833.54 2186.67 1833.96 2186.25C1834.38 2185.83 1834.88 2185.5 1835.42 2185.27C1835.97 2185.04 1836.56 2184.93 1837.15 2184.93H1886.42C1887.01 2184.92 1887.6 2185.04 1888.15 2185.27C1888.69 2185.5 1889.19 2185.83 1889.61 2186.25C1890.03 2186.67 1890.36 2187.17 1890.59 2187.72C1890.82 2188.27 1890.93 2188.86 1890.93 2189.46ZM1866.59 2038.64H1857.37L1851.83 1970H1872.12L1866.59 2038.64ZM1811.48 2067.99L1806.87 2076.02L1745 2046.53L1755.15 2028.84L1811.48 2067.99ZM1834.94 2045.6L1826.95 2050.23L1788.03 1993.57L1805.61 1983.36L1834.94 2045.6ZM1912.52 2068.92L1917.13 2076.98L1979 2047.46L1968.85 2029.8L1912.52 2068.92ZM1889.06 2044.09L1897.05 2048.73L1935.97 1992.06L1918.38 1981.85L1889.06 2044.09Z" fill="#FF96BA"/>
<path d="M1418.32 178.78C1418.32 151.969 1396.71 130.234 1370.07 130.234C1343.41 130.234 1321.8 151.969 1321.8 178.78C1321.8 194.542 1329.3 214.807 1340.88 228.879H1399.25C1410.82 214.809 1418.32 194.542 1418.32 178.78ZM1386.16 289H1353.98L1346.83 278.962H1393.31L1386.16 289ZM1399.14 239.224C1399.14 241.733 1397.11 243.769 1394.63 243.769H1345.36C1344.19 243.734 1343.07 243.24 1342.25 242.391C1341.43 241.543 1340.98 240.408 1340.98 239.226C1340.98 238.044 1341.43 236.908 1342.25 236.06C1343.07 235.212 1344.19 234.717 1345.36 234.682H1394.63C1397.11 234.682 1399.14 236.721 1399.14 239.224ZM1399.5 254.006C1399.5 256.515 1397.47 258.549 1394.97 258.549H1345.71C1344.51 258.549 1343.37 258.071 1342.52 257.219C1341.67 256.368 1341.2 255.213 1341.2 254.009C1341.2 252.805 1341.67 251.65 1342.52 250.799C1343.37 249.948 1344.51 249.469 1345.71 249.469H1394.97C1395.57 249.468 1396.15 249.584 1396.7 249.811C1397.25 250.038 1397.75 250.372 1398.17 250.793C1398.59 251.214 1398.93 251.715 1399.16 252.266C1399.38 252.817 1399.5 253.408 1399.5 254.006ZM1398.93 269.459C1398.94 270.057 1398.82 270.649 1398.59 271.201C1398.37 271.753 1398.03 272.256 1397.62 272.679C1397.2 273.102 1396.7 273.437 1396.15 273.667C1395.6 273.896 1395.01 274.014 1394.42 274.015H1345.15C1344.55 274.015 1343.97 273.897 1343.42 273.668C1342.87 273.439 1342.37 273.103 1341.95 272.679C1341.53 272.256 1341.2 271.754 1340.98 271.201C1340.75 270.649 1340.64 270.057 1340.64 269.459C1340.64 268.864 1340.76 268.274 1340.98 267.724C1341.21 267.174 1341.54 266.674 1341.96 266.253C1342.38 265.831 1342.88 265.498 1343.42 265.27C1343.97 265.042 1344.56 264.925 1345.15 264.926H1394.42C1395.01 264.925 1395.6 265.041 1396.15 265.269C1396.69 265.496 1397.19 265.83 1397.61 266.251C1398.03 266.672 1398.36 267.172 1398.59 267.723C1398.82 268.273 1398.93 268.863 1398.93 269.459ZM1374.59 118.641H1365.37L1359.83 50H1380.12L1374.59 118.641ZM1319.48 147.99L1314.87 156.021L1253 126.528L1263.15 108.842L1319.48 147.99ZM1342.94 125.596L1334.95 130.232L1296.03 73.5654L1313.61 63.36L1342.94 125.596ZM1420.52 148.922L1425.13 156.977L1487 127.46L1476.85 109.797L1420.52 148.922ZM1397.06 124.09L1405.05 128.726L1443.97 72.0597L1426.38 61.8543L1397.06 124.09Z" fill="#FF96BA"/>
<path d="M909.323 2098.78C909.323 2071.97 887.714 2050.23 861.068 2050.23C834.408 2050.23 812.8 2071.97 812.8 2098.78C812.8 2114.54 820.299 2134.81 831.885 2148.88H890.252C901.821 2134.81 909.323 2114.54 909.323 2098.78ZM877.157 2209H844.984L837.832 2198.96H884.309L877.157 2209ZM890.143 2159.22C890.143 2161.73 888.111 2163.77 885.626 2163.77H836.361C835.187 2163.73 834.072 2163.24 833.253 2162.39C832.435 2161.54 831.977 2160.41 831.977 2159.23C831.977 2158.04 832.435 2156.91 833.253 2156.06C834.072 2155.21 835.187 2154.72 836.361 2154.68H885.626C888.111 2154.68 890.143 2156.72 890.143 2159.22ZM890.503 2174.01C890.503 2176.52 888.472 2178.55 885.972 2178.55H836.711C835.514 2178.55 834.366 2178.07 833.52 2177.22C832.673 2176.37 832.198 2175.21 832.198 2174.01C832.198 2172.81 832.673 2171.65 833.52 2170.8C834.366 2169.95 835.514 2169.47 836.711 2169.47H885.972C886.566 2169.47 887.154 2169.58 887.703 2169.81C888.253 2170.04 888.752 2170.37 889.173 2170.79C889.593 2171.21 889.928 2171.71 890.156 2172.27C890.384 2172.82 890.502 2173.41 890.503 2174.01ZM889.934 2189.46C889.936 2190.06 889.82 2190.65 889.593 2191.2C889.367 2191.75 889.035 2192.26 888.616 2192.68C888.196 2193.1 887.698 2193.44 887.15 2193.67C886.601 2193.9 886.013 2194.01 885.419 2194.01H836.148C835.555 2194.01 834.967 2193.9 834.418 2193.67C833.87 2193.44 833.372 2193.1 832.953 2192.68C832.534 2192.26 832.202 2191.75 831.976 2191.2C831.751 2190.65 831.636 2190.06 831.638 2189.46C831.638 2188.86 831.755 2188.27 831.982 2187.72C832.208 2187.17 832.541 2186.67 832.959 2186.25C833.378 2185.83 833.875 2185.5 834.423 2185.27C834.97 2185.04 835.556 2184.93 836.148 2184.93H885.419C886.012 2184.92 886.599 2185.04 887.146 2185.27C887.694 2185.5 888.192 2185.83 888.611 2186.25C889.031 2186.67 889.363 2187.17 889.59 2187.72C889.817 2188.27 889.934 2188.86 889.934 2189.46ZM865.586 2038.64H856.367L850.83 1970H871.122L865.586 2038.64ZM810.484 2067.99L805.874 2076.02L744 2046.53L754.146 2028.84L810.484 2067.99ZM833.936 2045.6L825.952 2050.23L787.031 1993.57L804.615 1983.36L833.936 2045.6ZM911.516 2068.92L916.126 2076.98L978 2047.46L967.854 2029.8L911.516 2068.92ZM888.064 2044.09L896.048 2048.73L934.968 1992.06L917.384 1981.85L888.064 2044.09Z" fill="#FF96BA"/>
<path d="M2894.32 896.78C2894.32 869.969 2872.71 848.234 2846.07 848.234C2819.41 848.234 2797.8 869.969 2797.8 896.78C2797.8 912.542 2805.3 932.807 2816.88 946.879H2875.25C2886.82 932.809 2894.32 912.542 2894.32 896.78ZM2862.16 1007H2829.98L2822.83 996.962H2869.31L2862.16 1007ZM2875.14 957.224C2875.14 959.733 2873.11 961.769 2870.63 961.769H2821.36C2820.19 961.734 2819.07 961.24 2818.25 960.391C2817.43 959.543 2816.98 958.408 2816.98 957.226C2816.98 956.044 2817.43 954.908 2818.25 954.06C2819.07 953.212 2820.19 952.717 2821.36 952.682H2870.63C2873.11 952.682 2875.14 954.721 2875.14 957.224ZM2875.5 972.006C2875.5 974.515 2873.47 976.549 2870.97 976.549H2821.71C2820.51 976.549 2819.37 976.071 2818.52 975.219C2817.67 974.368 2817.2 973.213 2817.2 972.009C2817.2 970.805 2817.67 969.65 2818.52 968.799C2819.37 967.948 2820.51 967.469 2821.71 967.469H2870.97C2871.57 967.468 2872.15 967.584 2872.7 967.811C2873.25 968.038 2873.75 968.372 2874.17 968.793C2874.59 969.214 2874.93 969.715 2875.16 970.266C2875.38 970.817 2875.5 971.408 2875.5 972.006ZM2874.93 987.459C2874.94 988.057 2874.82 988.649 2874.59 989.201C2874.37 989.753 2874.03 990.256 2873.62 990.679C2873.2 991.102 2872.7 991.437 2872.15 991.667C2871.6 991.896 2871.01 992.014 2870.42 992.015H2821.15C2820.55 992.015 2819.97 991.897 2819.42 991.668C2818.87 991.439 2818.37 991.103 2817.95 990.679C2817.53 990.256 2817.2 989.754 2816.98 989.201C2816.75 988.649 2816.64 988.057 2816.64 987.459C2816.64 986.864 2816.76 986.274 2816.98 985.724C2817.21 985.174 2817.54 984.674 2817.96 984.253C2818.38 983.831 2818.88 983.498 2819.42 983.27C2819.97 983.042 2820.56 982.925 2821.15 982.926H2870.42C2871.01 982.925 2871.6 983.041 2872.15 983.269C2872.69 983.496 2873.19 983.83 2873.61 984.251C2874.03 984.672 2874.36 985.172 2874.59 985.723C2874.82 986.273 2874.93 986.863 2874.93 987.459ZM2850.59 836.641H2841.37L2835.83 768H2856.12L2850.59 836.641ZM2795.48 865.99L2790.87 874.021L2729 844.528L2739.15 826.842L2795.48 865.99ZM2818.94 843.596L2810.95 848.232L2772.03 791.565L2789.61 781.36L2818.94 843.596ZM2896.52 866.922L2901.13 874.977L2963 845.46L2952.85 827.797L2896.52 866.922ZM2873.06 842.09L2881.05 846.726L2919.97 790.06L2902.38 779.854L2873.06 842.09Z" fill="#FF96BA"/>
<path d="M399.323 1475.78C399.323 1448.97 377.714 1427.23 351.068 1427.23C324.408 1427.23 302.8 1448.97 302.8 1475.78C302.8 1491.54 310.299 1511.81 321.885 1525.88H380.252C391.821 1511.81 399.323 1491.54 399.323 1475.78ZM367.157 1586H334.984L327.832 1575.96H374.309L367.157 1586ZM380.143 1536.22C380.143 1538.73 378.111 1540.77 375.626 1540.77H326.361C325.187 1540.73 324.072 1540.24 323.253 1539.39C322.435 1538.54 321.977 1537.41 321.977 1536.23C321.977 1535.04 322.435 1533.91 323.253 1533.06C324.072 1532.21 325.187 1531.72 326.361 1531.68H375.626C378.111 1531.68 380.143 1533.72 380.143 1536.22ZM380.503 1551.01C380.503 1553.52 378.472 1555.55 375.972 1555.55H326.711C325.514 1555.55 324.366 1555.07 323.52 1554.22C322.673 1553.37 322.198 1552.21 322.198 1551.01C322.198 1549.81 322.673 1548.65 323.52 1547.8C324.366 1546.95 325.514 1546.47 326.711 1546.47H375.972C376.566 1546.47 377.154 1546.58 377.703 1546.81C378.253 1547.04 378.752 1547.37 379.173 1547.79C379.593 1548.21 379.928 1548.71 380.156 1549.27C380.384 1549.82 380.502 1550.41 380.503 1551.01ZM379.934 1566.46C379.936 1567.06 379.82 1567.65 379.593 1568.2C379.367 1568.75 379.035 1569.26 378.616 1569.68C378.196 1570.1 377.698 1570.44 377.15 1570.67C376.601 1570.9 376.013 1571.01 375.419 1571.01H326.148C325.555 1571.01 324.967 1570.9 324.418 1570.67C323.87 1570.44 323.372 1570.1 322.953 1569.68C322.534 1569.26 322.202 1568.75 321.976 1568.2C321.751 1567.65 321.636 1567.06 321.638 1566.46C321.638 1565.86 321.755 1565.27 321.982 1564.72C322.208 1564.17 322.541 1563.67 322.959 1563.25C323.378 1562.83 323.875 1562.5 324.423 1562.27C324.97 1562.04 325.556 1561.93 326.148 1561.93H375.419C376.012 1561.92 376.599 1562.04 377.146 1562.27C377.694 1562.5 378.192 1562.83 378.611 1563.25C379.031 1563.67 379.363 1564.17 379.59 1564.72C379.817 1565.27 379.934 1565.86 379.934 1566.46ZM355.586 1415.64H346.367L340.83 1347H361.122L355.586 1415.64ZM300.484 1444.99L295.874 1453.02L234 1423.53L244.146 1405.84L300.484 1444.99ZM323.936 1422.6L315.952 1427.23L277.031 1370.57L294.615 1360.36L323.936 1422.6ZM401.516 1445.92L406.126 1453.98L468 1424.46L457.854 1406.8L401.516 1445.92ZM378.064 1421.09L386.048 1425.73L424.968 1369.06L407.384 1358.85L378.064 1421.09Z" fill="#FF96BA"/>
<path d="M2385.32 1475.78C2385.32 1448.97 2363.71 1427.23 2337.07 1427.23C2310.41 1427.23 2288.8 1448.97 2288.8 1475.78C2288.8 1491.54 2296.3 1511.81 2307.88 1525.88H2366.25C2377.82 1511.81 2385.32 1491.54 2385.32 1475.78ZM2353.16 1586H2320.98L2313.83 1575.96H2360.31L2353.16 1586ZM2366.14 1536.22C2366.14 1538.73 2364.11 1540.77 2361.63 1540.77H2312.36C2311.19 1540.73 2310.07 1540.24 2309.25 1539.39C2308.43 1538.54 2307.98 1537.41 2307.98 1536.23C2307.98 1535.04 2308.43 1533.91 2309.25 1533.06C2310.07 1532.21 2311.19 1531.72 2312.36 1531.68H2361.63C2364.11 1531.68 2366.14 1533.72 2366.14 1536.22ZM2366.5 1551.01C2366.5 1553.52 2364.47 1555.55 2361.97 1555.55H2312.71C2311.51 1555.55 2310.37 1555.07 2309.52 1554.22C2308.67 1553.37 2308.2 1552.21 2308.2 1551.01C2308.2 1549.81 2308.67 1548.65 2309.52 1547.8C2310.37 1546.95 2311.51 1546.47 2312.71 1546.47H2361.97C2362.57 1546.47 2363.15 1546.58 2363.7 1546.81C2364.25 1547.04 2364.75 1547.37 2365.17 1547.79C2365.59 1548.21 2365.93 1548.71 2366.16 1549.27C2366.38 1549.82 2366.5 1550.41 2366.5 1551.01ZM2365.93 1566.46C2365.94 1567.06 2365.82 1567.65 2365.59 1568.2C2365.37 1568.75 2365.03 1569.26 2364.62 1569.68C2364.2 1570.1 2363.7 1570.44 2363.15 1570.67C2362.6 1570.9 2362.01 1571.01 2361.42 1571.01H2312.15C2311.55 1571.01 2310.97 1570.9 2310.42 1570.67C2309.87 1570.44 2309.37 1570.1 2308.95 1569.68C2308.53 1569.26 2308.2 1568.75 2307.98 1568.2C2307.75 1567.65 2307.64 1567.06 2307.64 1566.46C2307.64 1565.86 2307.76 1565.27 2307.98 1564.72C2308.21 1564.17 2308.54 1563.67 2308.96 1563.25C2309.38 1562.83 2309.88 1562.5 2310.42 1562.27C2310.97 1562.04 2311.56 1561.93 2312.15 1561.93H2361.42C2362.01 1561.92 2362.6 1562.04 2363.15 1562.27C2363.69 1562.5 2364.19 1562.83 2364.61 1563.25C2365.03 1563.67 2365.36 1564.17 2365.59 1564.72C2365.82 1565.27 2365.93 1565.86 2365.93 1566.46ZM2341.59 1415.64H2332.37L2326.83 1347H2347.12L2341.59 1415.64ZM2286.48 1444.99L2281.87 1453.02L2220 1423.53L2230.15 1405.84L2286.48 1444.99ZM2309.94 1422.6L2301.95 1427.23L2263.03 1370.57L2280.61 1360.36L2309.94 1422.6ZM2387.52 1445.92L2392.13 1453.98L2454 1424.46L2443.85 1406.8L2387.52 1445.92ZM2364.06 1421.09L2372.05 1425.73L2410.97 1369.06L2393.38 1358.85L2364.06 1421.09Z" fill="#FF96BA"/>
<path d="M5736.32 178.78C5736.32 151.969 5714.71 130.234 5688.07 130.234C5661.41 130.234 5639.8 151.969 5639.8 178.78C5639.8 194.542 5647.3 214.807 5658.88 228.879H5717.25C5728.82 214.809 5736.32 194.542 5736.32 178.78ZM5704.16 289H5671.98L5664.83 278.962H5711.31L5704.16 289ZM5717.14 239.224C5717.14 241.733 5715.11 243.769 5712.63 243.769H5663.36C5662.19 243.734 5661.07 243.24 5660.25 242.391C5659.43 241.543 5658.98 240.408 5658.98 239.226C5658.98 238.044 5659.43 236.908 5660.25 236.06C5661.07 235.212 5662.19 234.717 5663.36 234.682H5712.63C5715.11 234.682 5717.14 236.721 5717.14 239.224ZM5717.5 254.006C5717.5 256.515 5715.47 258.549 5712.97 258.549H5663.71C5662.51 258.549 5661.37 258.071 5660.52 257.219C5659.67 256.368 5659.2 255.213 5659.2 254.009C5659.2 252.805 5659.67 251.65 5660.52 250.799C5661.37 249.948 5662.51 249.469 5663.71 249.469H5712.97C5713.57 249.468 5714.15 249.584 5714.7 249.811C5715.25 250.038 5715.75 250.372 5716.17 250.793C5716.59 251.214 5716.93 251.715 5717.16 252.266C5717.38 252.817 5717.5 253.408 5717.5 254.006ZM5716.93 269.459C5716.94 270.057 5716.82 270.649 5716.59 271.201C5716.37 271.753 5716.03 272.256 5715.62 272.679C5715.2 273.102 5714.7 273.437 5714.15 273.667C5713.6 273.896 5713.01 274.014 5712.42 274.015H5663.15C5662.55 274.015 5661.97 273.897 5661.42 273.668C5660.87 273.439 5660.37 273.103 5659.95 272.679C5659.53 272.256 5659.2 271.754 5658.98 271.201C5658.75 270.649 5658.64 270.057 5658.64 269.459C5658.64 268.864 5658.76 268.274 5658.98 267.724C5659.21 267.174 5659.54 266.674 5659.96 266.253C5660.38 265.831 5660.88 265.498 5661.42 265.27C5661.97 265.042 5662.56 264.925 5663.15 264.926H5712.42C5713.01 264.925 5713.6 265.041 5714.15 265.269C5714.69 265.496 5715.19 265.83 5715.61 266.251C5716.03 266.672 5716.36 267.172 5716.59 267.723C5716.82 268.273 5716.93 268.863 5716.93 269.459ZM5692.59 118.641H5683.37L5677.83 50H5698.12L5692.59 118.641ZM5637.48 147.99L5632.87 156.021L5571 126.528L5581.15 108.842L5637.48 147.99ZM5660.94 125.596L5652.95 130.232L5614.03 73.5654L5631.61 63.36L5660.94 125.596ZM5738.52 148.922L5743.13 156.977L5805 127.46L5794.85 109.797L5738.52 148.922ZM5715.06 124.09L5723.05 128.726L5761.97 72.0597L5744.38 61.8543L5715.06 124.09Z" fill="#FF96BA"/>
<path d="M909.323 3293.78C909.323 3266.97 887.714 3245.23 861.068 3245.23C834.408 3245.23 812.8 3266.97 812.8 3293.78C812.8 3309.54 820.299 3329.81 831.885 3343.88H890.252C901.821 3329.81 909.323 3309.54 909.323 3293.78ZM877.157 3404H844.984L837.832 3393.96H884.309L877.157 3404ZM890.143 3354.22C890.143 3356.73 888.111 3358.77 885.626 3358.77H836.361C835.187 3358.73 834.072 3358.24 833.253 3357.39C832.435 3356.54 831.977 3355.41 831.977 3354.23C831.977 3353.04 832.435 3351.91 833.253 3351.06C834.072 3350.21 835.187 3349.72 836.361 3349.68H885.626C888.111 3349.68 890.143 3351.72 890.143 3354.22ZM890.503 3369.01C890.503 3371.52 888.472 3373.55 885.972 3373.55H836.711C835.514 3373.55 834.366 3373.07 833.52 3372.22C832.673 3371.37 832.198 3370.21 832.198 3369.01C832.198 3367.81 832.673 3366.65 833.52 3365.8C834.366 3364.95 835.514 3364.47 836.711 3364.47H885.972C886.566 3364.47 887.154 3364.58 887.703 3364.81C888.253 3365.04 888.752 3365.37 889.173 3365.79C889.593 3366.21 889.928 3366.71 890.156 3367.27C890.384 3367.82 890.502 3368.41 890.503 3369.01ZM889.934 3384.46C889.936 3385.06 889.82 3385.65 889.593 3386.2C889.367 3386.75 889.035 3387.26 888.616 3387.68C888.196 3388.1 887.698 3388.44 887.15 3388.67C886.601 3388.9 886.013 3389.01 885.419 3389.01H836.148C835.555 3389.01 834.967 3388.9 834.418 3388.67C833.87 3388.44 833.372 3388.1 832.953 3387.68C832.534 3387.26 832.202 3386.75 831.976 3386.2C831.751 3385.65 831.636 3385.06 831.638 3384.46C831.638 3383.86 831.755 3383.27 831.982 3382.72C832.208 3382.17 832.541 3381.67 832.959 3381.25C833.378 3380.83 833.875 3380.5 834.423 3380.27C834.97 3380.04 835.556 3379.93 836.148 3379.93H885.419C886.012 3379.92 886.599 3380.04 887.146 3380.27C887.694 3380.5 888.192 3380.83 888.611 3381.25C889.031 3381.67 889.363 3382.17 889.59 3382.72C889.817 3383.27 889.934 3383.86 889.934 3384.46ZM865.586 3233.64H856.367L850.83 3165H871.122L865.586 3233.64ZM810.484 3262.99L805.874 3271.02L744 3241.53L754.146 3223.84L810.484 3262.99ZM833.936 3240.6L825.952 3245.23L787.031 3188.57L804.615 3178.36L833.936 3240.6ZM911.516 3263.92L916.126 3271.98L978 3242.46L967.854 3224.8L911.516 3263.92ZM888.064 3239.09L896.048 3243.73L934.968 3187.06L917.384 3176.85L888.064 3239.09Z" fill="#FF96BA"/>
<path d="M3531.32 2670.78C3531.32 2643.97 3509.71 2622.23 3483.07 2622.23C3456.41 2622.23 3434.8 2643.97 3434.8 2670.78C3434.8 2686.54 3442.3 2706.81 3453.88 2720.88H3512.25C3523.82 2706.81 3531.32 2686.54 3531.32 2670.78ZM3499.16 2781H3466.98L3459.83 2770.96H3506.31L3499.16 2781ZM3512.14 2731.22C3512.14 2733.73 3510.11 2735.77 3507.63 2735.77H3458.36C3457.19 2735.73 3456.07 2735.24 3455.25 2734.39C3454.43 2733.54 3453.98 2732.41 3453.98 2731.23C3453.98 2730.04 3454.43 2728.91 3455.25 2728.06C3456.07 2727.21 3457.19 2726.72 3458.36 2726.68H3507.63C3510.11 2726.68 3512.14 2728.72 3512.14 2731.22ZM3512.5 2746.01C3512.5 2748.52 3510.47 2750.55 3507.97 2750.55H3458.71C3457.51 2750.55 3456.37 2750.07 3455.52 2749.22C3454.67 2748.37 3454.2 2747.21 3454.2 2746.01C3454.2 2744.81 3454.67 2743.65 3455.52 2742.8C3456.37 2741.95 3457.51 2741.47 3458.71 2741.47H3507.97C3508.57 2741.47 3509.15 2741.58 3509.7 2741.81C3510.25 2742.04 3510.75 2742.37 3511.17 2742.79C3511.59 2743.21 3511.93 2743.71 3512.16 2744.27C3512.38 2744.82 3512.5 2745.41 3512.5 2746.01ZM3511.93 2761.46C3511.94 2762.06 3511.82 2762.65 3511.59 2763.2C3511.37 2763.75 3511.03 2764.26 3510.62 2764.68C3510.2 2765.1 3509.7 2765.44 3509.15 2765.67C3508.6 2765.9 3508.01 2766.01 3507.42 2766.01H3458.15C3457.55 2766.01 3456.97 2765.9 3456.42 2765.67C3455.87 2765.44 3455.37 2765.1 3454.95 2764.68C3454.53 2764.26 3454.2 2763.75 3453.98 2763.2C3453.75 2762.65 3453.64 2762.06 3453.64 2761.46C3453.64 2760.86 3453.76 2760.27 3453.98 2759.72C3454.21 2759.17 3454.54 2758.67 3454.96 2758.25C3455.38 2757.83 3455.88 2757.5 3456.42 2757.27C3456.97 2757.04 3457.56 2756.93 3458.15 2756.93H3507.42C3508.01 2756.92 3508.6 2757.04 3509.15 2757.27C3509.69 2757.5 3510.19 2757.83 3510.61 2758.25C3511.03 2758.67 3511.36 2759.17 3511.59 2759.72C3511.82 2760.27 3511.93 2760.86 3511.93 2761.46ZM3487.59 2610.64H3478.37L3472.83 2542H3493.12L3487.59 2610.64ZM3432.48 2639.99L3427.87 2648.02L3366 2618.53L3376.15 2600.84L3432.48 2639.99ZM3455.94 2617.6L3447.95 2622.23L3409.03 2565.57L3426.61 2555.36L3455.94 2617.6ZM3533.52 2640.92L3538.13 2648.98L3600 2619.46L3589.85 2601.8L3533.52 2640.92ZM3510.06 2616.09L3518.05 2620.73L3556.97 2564.06L3539.38 2553.85L3510.06 2616.09Z" fill="#FF96BA"/>
<path d="M2385.32 178.78C2385.32 151.969 2363.71 130.234 2337.07 130.234C2310.41 130.234 2288.8 151.969 2288.8 178.78C2288.8 194.542 2296.3 214.807 2307.88 228.879H2366.25C2377.82 214.809 2385.32 194.542 2385.32 178.78ZM2353.16 289H2320.98L2313.83 278.962H2360.31L2353.16 289ZM2366.14 239.224C2366.14 241.733 2364.11 243.769 2361.63 243.769H2312.36C2311.19 243.734 2310.07 243.24 2309.25 242.391C2308.43 241.543 2307.98 240.408 2307.98 239.226C2307.98 238.044 2308.43 236.908 2309.25 236.06C2310.07 235.212 2311.19 234.717 2312.36 234.682H2361.63C2364.11 234.682 2366.14 236.721 2366.14 239.224ZM2366.5 254.006C2366.5 256.515 2364.47 258.549 2361.97 258.549H2312.71C2311.51 258.549 2310.37 258.071 2309.52 257.219C2308.67 256.368 2308.2 255.213 2308.2 254.009C2308.2 252.805 2308.67 251.65 2309.52 250.799C2310.37 249.948 2311.51 249.469 2312.71 249.469H2361.97C2362.57 249.468 2363.15 249.584 2363.7 249.811C2364.25 250.038 2364.75 250.372 2365.17 250.793C2365.59 251.214 2365.93 251.715 2366.16 252.266C2366.38 252.817 2366.5 253.408 2366.5 254.006ZM2365.93 269.459C2365.94 270.057 2365.82 270.649 2365.59 271.201C2365.37 271.753 2365.03 272.256 2364.62 272.679C2364.2 273.102 2363.7 273.437 2363.15 273.667C2362.6 273.896 2362.01 274.014 2361.42 274.015H2312.15C2311.55 274.015 2310.97 273.897 2310.42 273.668C2309.87 273.439 2309.37 273.103 2308.95 272.679C2308.53 272.256 2308.2 271.754 2307.98 271.201C2307.75 270.649 2307.64 270.057 2307.64 269.459C2307.64 268.864 2307.76 268.274 2307.98 267.724C2308.21 267.174 2308.54 266.674 2308.96 266.253C2309.38 265.831 2309.88 265.498 2310.42 265.27C2310.97 265.042 2311.56 264.925 2312.15 264.926H2361.42C2362.01 264.925 2362.6 265.041 2363.15 265.269C2363.69 265.496 2364.19 265.83 2364.61 266.251C2365.03 266.672 2365.36 267.172 2365.59 267.723C2365.82 268.273 2365.93 268.863 2365.93 269.459ZM2341.59 118.641H2332.37L2326.83 50H2347.12L2341.59 118.641ZM2286.48 147.99L2281.87 156.021L2220 126.528L2230.15 108.842L2286.48 147.99ZM2309.94 125.596L2301.95 130.232L2263.03 73.5654L2280.61 63.36L2309.94 125.596ZM2387.52 148.922L2392.13 156.977L2454 127.46L2443.85 109.797L2387.52 148.922ZM2364.06 124.09L2372.05 128.726L2410.97 72.0597L2393.38 61.8543L2364.06 124.09Z" fill="#FF96BA"/>
<path d="M2894.32 3293.78C2894.32 3266.97 2872.71 3245.23 2846.07 3245.23C2819.41 3245.23 2797.8 3266.97 2797.8 3293.78C2797.8 3309.54 2805.3 3329.81 2816.88 3343.88H2875.25C2886.82 3329.81 2894.32 3309.54 2894.32 3293.78ZM2862.16 3404H2829.98L2822.83 3393.96H2869.31L2862.16 3404ZM2875.14 3354.22C2875.14 3356.73 2873.11 3358.77 2870.63 3358.77H2821.36C2820.19 3358.73 2819.07 3358.24 2818.25 3357.39C2817.43 3356.54 2816.98 3355.41 2816.98 3354.23C2816.98 3353.04 2817.43 3351.91 2818.25 3351.06C2819.07 3350.21 2820.19 3349.72 2821.36 3349.68H2870.63C2873.11 3349.68 2875.14 3351.72 2875.14 3354.22ZM2875.5 3369.01C2875.5 3371.52 2873.47 3373.55 2870.97 3373.55H2821.71C2820.51 3373.55 2819.37 3373.07 2818.52 3372.22C2817.67 3371.37 2817.2 3370.21 2817.2 3369.01C2817.2 3367.81 2817.67 3366.65 2818.52 3365.8C2819.37 3364.95 2820.51 3364.47 2821.71 3364.47H2870.97C2871.57 3364.47 2872.15 3364.58 2872.7 3364.81C2873.25 3365.04 2873.75 3365.37 2874.17 3365.79C2874.59 3366.21 2874.93 3366.71 2875.16 3367.27C2875.38 3367.82 2875.5 3368.41 2875.5 3369.01ZM2874.93 3384.46C2874.94 3385.06 2874.82 3385.65 2874.59 3386.2C2874.37 3386.75 2874.03 3387.26 2873.62 3387.68C2873.2 3388.1 2872.7 3388.44 2872.15 3388.67C2871.6 3388.9 2871.01 3389.01 2870.42 3389.01H2821.15C2820.55 3389.01 2819.97 3388.9 2819.42 3388.67C2818.87 3388.44 2818.37 3388.1 2817.95 3387.68C2817.53 3387.26 2817.2 3386.75 2816.98 3386.2C2816.75 3385.65 2816.64 3385.06 2816.64 3384.46C2816.64 3383.86 2816.76 3383.27 2816.98 3382.72C2817.21 3382.17 2817.54 3381.67 2817.96 3381.25C2818.38 3380.83 2818.88 3380.5 2819.42 3380.27C2819.97 3380.04 2820.56 3379.93 2821.15 3379.93H2870.42C2871.01 3379.92 2871.6 3380.04 2872.15 3380.27C2872.69 3380.5 2873.19 3380.83 2873.61 3381.25C2874.03 3381.67 2874.36 3382.17 2874.59 3382.72C2874.82 3383.27 2874.93 3383.86 2874.93 3384.46ZM2850.59 3233.64H2841.37L2835.83 3165H2856.12L2850.59 3233.64ZM2795.48 3262.99L2790.87 3271.02L2729 3241.53L2739.15 3223.84L2795.48 3262.99ZM2818.94 3240.6L2810.95 3245.23L2772.03 3188.57L2789.61 3178.36L2818.94 3240.6ZM2896.52 3263.92L2901.13 3271.98L2963 3242.46L2952.85 3224.8L2896.52 3263.92ZM2873.06 3239.09L2881.05 3243.73L2919.97 3187.06L2902.38 3176.85L2873.06 3239.09Z" fill="#FF96BA"/>
<path d="M6608.32 2670.78C6608.32 2643.97 6586.71 2622.23 6560.07 2622.23C6533.41 2622.23 6511.8 2643.97 6511.8 2670.78C6511.8 2686.54 6519.3 2706.81 6530.88 2720.88H6589.25C6600.82 2706.81 6608.32 2686.54 6608.32 2670.78ZM6576.16 2781H6543.98L6536.83 2770.96H6583.31L6576.16 2781ZM6589.14 2731.22C6589.14 2733.73 6587.11 2735.77 6584.63 2735.77H6535.36C6534.19 2735.73 6533.07 2735.24 6532.25 2734.39C6531.43 2733.54 6530.98 2732.41 6530.98 2731.23C6530.98 2730.04 6531.43 2728.91 6532.25 2728.06C6533.07 2727.21 6534.19 2726.72 6535.36 2726.68H6584.63C6587.11 2726.68 6589.14 2728.72 6589.14 2731.22ZM6589.5 2746.01C6589.5 2748.52 6587.47 2750.55 6584.97 2750.55H6535.71C6534.51 2750.55 6533.37 2750.07 6532.52 2749.22C6531.67 2748.37 6531.2 2747.21 6531.2 2746.01C6531.2 2744.81 6531.67 2743.65 6532.52 2742.8C6533.37 2741.95 6534.51 2741.47 6535.71 2741.47H6584.97C6585.57 2741.47 6586.15 2741.58 6586.7 2741.81C6587.25 2742.04 6587.75 2742.37 6588.17 2742.79C6588.59 2743.21 6588.93 2743.71 6589.16 2744.27C6589.38 2744.82 6589.5 2745.41 6589.5 2746.01ZM6588.93 2761.46C6588.94 2762.06 6588.82 2762.65 6588.59 2763.2C6588.37 2763.75 6588.03 2764.26 6587.62 2764.68C6587.2 2765.1 6586.7 2765.44 6586.15 2765.67C6585.6 2765.9 6585.01 2766.01 6584.42 2766.01H6535.15C6534.55 2766.01 6533.97 2765.9 6533.42 2765.67C6532.87 2765.44 6532.37 2765.1 6531.95 2764.68C6531.53 2764.26 6531.2 2763.75 6530.98 2763.2C6530.75 2762.65 6530.64 2762.06 6530.64 2761.46C6530.64 2760.86 6530.76 2760.27 6530.98 2759.72C6531.21 2759.17 6531.54 2758.67 6531.96 2758.25C6532.38 2757.83 6532.88 2757.5 6533.42 2757.27C6533.97 2757.04 6534.56 2756.93 6535.15 2756.93H6584.42C6585.01 2756.92 6585.6 2757.04 6586.15 2757.27C6586.69 2757.5 6587.19 2757.83 6587.61 2758.25C6588.03 2758.67 6588.36 2759.17 6588.59 2759.72C6588.82 2760.27 6588.93 2760.86 6588.93 2761.46ZM6564.59 2610.64H6555.37L6549.83 2542H6570.12L6564.59 2610.64ZM6509.48 2639.99L6504.87 2648.02L6443 2618.53L6453.15 2600.84L6509.48 2639.99ZM6532.94 2617.6L6524.95 2622.23L6486.03 2565.57L6503.61 2555.36L6532.94 2617.6ZM6610.52 2640.92L6615.13 2648.98L6677 2619.46L6666.85 2601.8L6610.52 2640.92ZM6587.06 2616.09L6595.05 2620.73L6633.97 2564.06L6616.38 2553.85L6587.06 2616.09Z" fill="#FF96BA"/>
<path d="M4664.32 2670.78C4664.32 2643.97 4642.71 2622.23 4616.07 2622.23C4589.41 2622.23 4567.8 2643.97 4567.8 2670.78C4567.8 2686.54 4575.3 2706.81 4586.88 2720.88H4645.25C4656.82 2706.81 4664.32 2686.54 4664.32 2670.78ZM4632.16 2781H4599.98L4592.83 2770.96H4639.31L4632.16 2781ZM4645.14 2731.22C4645.14 2733.73 4643.11 2735.77 4640.63 2735.77H4591.36C4590.19 2735.73 4589.07 2735.24 4588.25 2734.39C4587.43 2733.54 4586.98 2732.41 4586.98 2731.23C4586.98 2730.04 4587.43 2728.91 4588.25 2728.06C4589.07 2727.21 4590.19 2726.72 4591.36 2726.68H4640.63C4643.11 2726.68 4645.14 2728.72 4645.14 2731.22ZM4645.5 2746.01C4645.5 2748.52 4643.47 2750.55 4640.97 2750.55H4591.71C4590.51 2750.55 4589.37 2750.07 4588.52 2749.22C4587.67 2748.37 4587.2 2747.21 4587.2 2746.01C4587.2 2744.81 4587.67 2743.65 4588.52 2742.8C4589.37 2741.95 4590.51 2741.47 4591.71 2741.47H4640.97C4641.57 2741.47 4642.15 2741.58 4642.7 2741.81C4643.25 2742.04 4643.75 2742.37 4644.17 2742.79C4644.59 2743.21 4644.93 2743.71 4645.16 2744.27C4645.38 2744.82 4645.5 2745.41 4645.5 2746.01ZM4644.93 2761.46C4644.94 2762.06 4644.82 2762.65 4644.59 2763.2C4644.37 2763.75 4644.03 2764.26 4643.62 2764.68C4643.2 2765.1 4642.7 2765.44 4642.15 2765.67C4641.6 2765.9 4641.01 2766.01 4640.42 2766.01H4591.15C4590.55 2766.01 4589.97 2765.9 4589.42 2765.67C4588.87 2765.44 4588.37 2765.1 4587.95 2764.68C4587.53 2764.26 4587.2 2763.75 4586.98 2763.2C4586.75 2762.65 4586.64 2762.06 4586.64 2761.46C4586.64 2760.86 4586.76 2760.27 4586.98 2759.72C4587.21 2759.17 4587.54 2758.67 4587.96 2758.25C4588.38 2757.83 4588.88 2757.5 4589.42 2757.27C4589.97 2757.04 4590.56 2756.93 4591.15 2756.93H4640.42C4641.01 2756.92 4641.6 2757.04 4642.15 2757.27C4642.69 2757.5 4643.19 2757.83 4643.61 2758.25C4644.03 2758.67 4644.36 2759.17 4644.59 2759.72C4644.82 2760.27 4644.93 2760.86 4644.93 2761.46ZM4620.59 2610.64H4611.37L4605.83 2542H4626.12L4620.59 2610.64ZM4565.48 2639.99L4560.87 2648.02L4499 2618.53L4509.15 2600.84L4565.48 2639.99ZM4588.94 2617.6L4580.95 2622.23L4542.03 2565.57L4559.61 2555.36L4588.94 2617.6ZM4666.52 2640.92L4671.13 2648.98L4733 2619.46L4722.85 2601.8L4666.52 2640.92ZM4643.06 2616.09L4651.05 2620.73L4689.97 2564.06L4672.38 2553.85L4643.06 2616.09Z" fill="#FF96BA"/>
<path d="M6608.32 1469.78C6608.32 1442.97 6586.71 1421.23 6560.07 1421.23C6533.41 1421.23 6511.8 1442.97 6511.8 1469.78C6511.8 1485.54 6519.3 1505.81 6530.88 1519.88H6589.25C6600.82 1505.81 6608.32 1485.54 6608.32 1469.78ZM6576.16 1580H6543.98L6536.83 1569.96H6583.31L6576.16 1580ZM6589.14 1530.22C6589.14 1532.73 6587.11 1534.77 6584.63 1534.77H6535.36C6534.19 1534.73 6533.07 1534.24 6532.25 1533.39C6531.43 1532.54 6530.98 1531.41 6530.98 1530.23C6530.98 1529.04 6531.43 1527.91 6532.25 1527.06C6533.07 1526.21 6534.19 1525.72 6535.36 1525.68H6584.63C6587.11 1525.68 6589.14 1527.72 6589.14 1530.22ZM6589.5 1545.01C6589.5 1547.52 6587.47 1549.55 6584.97 1549.55H6535.71C6534.51 1549.55 6533.37 1549.07 6532.52 1548.22C6531.67 1547.37 6531.2 1546.21 6531.2 1545.01C6531.2 1543.81 6531.67 1542.65 6532.52 1541.8C6533.37 1540.95 6534.51 1540.47 6535.71 1540.47H6584.97C6585.57 1540.47 6586.15 1540.58 6586.7 1540.81C6587.25 1541.04 6587.75 1541.37 6588.17 1541.79C6588.59 1542.21 6588.93 1542.71 6589.16 1543.27C6589.38 1543.82 6589.5 1544.41 6589.5 1545.01ZM6588.93 1560.46C6588.94 1561.06 6588.82 1561.65 6588.59 1562.2C6588.37 1562.75 6588.03 1563.26 6587.62 1563.68C6587.2 1564.1 6586.7 1564.44 6586.15 1564.67C6585.6 1564.9 6585.01 1565.01 6584.42 1565.01H6535.15C6534.55 1565.01 6533.97 1564.9 6533.42 1564.67C6532.87 1564.44 6532.37 1564.1 6531.95 1563.68C6531.53 1563.26 6531.2 1562.75 6530.98 1562.2C6530.75 1561.65 6530.64 1561.06 6530.64 1560.46C6530.64 1559.86 6530.76 1559.27 6530.98 1558.72C6531.21 1558.17 6531.54 1557.67 6531.96 1557.25C6532.38 1556.83 6532.88 1556.5 6533.42 1556.27C6533.97 1556.04 6534.56 1555.93 6535.15 1555.93H6584.42C6585.01 1555.92 6585.6 1556.04 6586.15 1556.27C6586.69 1556.5 6587.19 1556.83 6587.61 1557.25C6588.03 1557.67 6588.36 1558.17 6588.59 1558.72C6588.82 1559.27 6588.93 1559.86 6588.93 1560.46ZM6564.59 1409.64H6555.37L6549.83 1341H6570.12L6564.59 1409.64ZM6509.48 1438.99L6504.87 1447.02L6443 1417.53L6453.15 1399.84L6509.48 1438.99ZM6532.94 1416.6L6524.95 1421.23L6486.03 1364.57L6503.61 1354.36L6532.94 1416.6ZM6610.52 1439.92L6615.13 1447.98L6677 1418.46L6666.85 1400.8L6610.52 1439.92ZM6587.06 1415.09L6595.05 1419.73L6633.97 1363.06L6616.38 1352.85L6587.06 1415.09Z" fill="#FF96BA"/>
<path d="M202.323 3293.78C202.323 3266.97 180.714 3245.23 154.068 3245.23C127.408 3245.23 105.8 3266.97 105.8 3293.78C105.8 3309.54 113.299 3329.81 124.885 3343.88H183.252C194.821 3329.81 202.323 3309.54 202.323 3293.78ZM170.157 3404H137.984L130.832 3393.96H177.309L170.157 3404ZM183.143 3354.22C183.143 3356.73 181.111 3358.77 178.626 3358.77H129.361C128.187 3358.73 127.072 3358.24 126.253 3357.39C125.435 3356.54 124.977 3355.41 124.977 3354.23C124.977 3353.04 125.435 3351.91 126.253 3351.06C127.072 3350.21 128.187 3349.72 129.361 3349.68H178.626C181.111 3349.68 183.143 3351.72 183.143 3354.22ZM183.503 3369.01C183.503 3371.52 181.472 3373.55 178.972 3373.55H129.711C128.514 3373.55 127.366 3373.07 126.52 3372.22C125.673 3371.37 125.198 3370.21 125.198 3369.01C125.198 3367.81 125.673 3366.65 126.52 3365.8C127.366 3364.95 128.514 3364.47 129.711 3364.47H178.972C179.566 3364.47 180.154 3364.58 180.703 3364.81C181.253 3365.04 181.752 3365.37 182.173 3365.79C182.593 3366.21 182.928 3366.71 183.156 3367.27C183.384 3367.82 183.502 3368.41 183.503 3369.01ZM182.934 3384.46C182.936 3385.06 182.82 3385.65 182.593 3386.2C182.367 3386.75 182.035 3387.26 181.616 3387.68C181.196 3388.1 180.698 3388.44 180.15 3388.67C179.601 3388.9 179.013 3389.01 178.419 3389.01H129.148C128.555 3389.01 127.967 3388.9 127.418 3388.67C126.87 3388.44 126.372 3388.1 125.953 3387.68C125.534 3387.26 125.202 3386.75 124.976 3386.2C124.751 3385.65 124.636 3385.06 124.638 3384.46C124.638 3383.86 124.755 3383.27 124.982 3382.72C125.208 3382.17 125.541 3381.67 125.959 3381.25C126.378 3380.83 126.875 3380.5 127.423 3380.27C127.97 3380.04 128.556 3379.93 129.148 3379.93H178.419C179.012 3379.92 179.599 3380.04 180.146 3380.27C180.694 3380.5 181.192 3380.83 181.611 3381.25C182.031 3381.67 182.363 3382.17 182.59 3382.72C182.817 3383.27 182.934 3383.86 182.934 3384.46ZM158.586 3233.64H149.367L143.83 3165H164.122L158.586 3233.64ZM103.484 3262.99L98.8743 3271.02L37 3241.53L47.1461 3223.84L103.484 3262.99ZM126.936 3240.6L118.952 3245.23L80.0314 3188.57L97.6148 3178.36L126.936 3240.6ZM204.516 3263.92L209.126 3271.98L271 3242.46L260.854 3224.8L204.516 3263.92ZM181.064 3239.09L189.048 3243.73L227.968 3187.06L210.384 3176.85L181.064 3239.09Z" fill="#FF96BA"/>
<path d="M436.323 2670.78C436.323 2643.97 414.714 2622.23 388.068 2622.23C361.408 2622.23 339.8 2643.97 339.8 2670.78C339.8 2686.54 347.299 2706.81 358.885 2720.88H417.252C428.821 2706.81 436.323 2686.54 436.323 2670.78ZM404.157 2781H371.984L364.832 2770.96H411.309L404.157 2781ZM417.143 2731.22C417.143 2733.73 415.111 2735.77 412.626 2735.77H363.361C362.187 2735.73 361.072 2735.24 360.253 2734.39C359.435 2733.54 358.977 2732.41 358.977 2731.23C358.977 2730.04 359.435 2728.91 360.253 2728.06C361.072 2727.21 362.187 2726.72 363.361 2726.68H412.626C415.111 2726.68 417.143 2728.72 417.143 2731.22ZM417.503 2746.01C417.503 2748.52 415.472 2750.55 412.972 2750.55H363.711C362.514 2750.55 361.366 2750.07 360.52 2749.22C359.673 2748.37 359.198 2747.21 359.198 2746.01C359.198 2744.81 359.673 2743.65 360.52 2742.8C361.366 2741.95 362.514 2741.47 363.711 2741.47H412.972C413.566 2741.47 414.154 2741.58 414.703 2741.81C415.253 2742.04 415.752 2742.37 416.173 2742.79C416.593 2743.21 416.928 2743.71 417.156 2744.27C417.384 2744.82 417.502 2745.41 417.503 2746.01ZM416.934 2761.46C416.936 2762.06 416.82 2762.65 416.593 2763.2C416.367 2763.75 416.035 2764.26 415.616 2764.68C415.196 2765.1 414.698 2765.44 414.15 2765.67C413.601 2765.9 413.013 2766.01 412.419 2766.01H363.148C362.555 2766.01 361.967 2765.9 361.418 2765.67C360.87 2765.44 360.372 2765.1 359.953 2764.68C359.534 2764.26 359.202 2763.75 358.976 2763.2C358.751 2762.65 358.636 2762.06 358.638 2761.46C358.638 2760.86 358.755 2760.27 358.982 2759.72C359.208 2759.17 359.541 2758.67 359.959 2758.25C360.378 2757.83 360.875 2757.5 361.423 2757.27C361.97 2757.04 362.556 2756.93 363.148 2756.93H412.419C413.012 2756.92 413.599 2757.04 414.146 2757.27C414.694 2757.5 415.192 2757.83 415.611 2758.25C416.031 2758.67 416.363 2759.17 416.59 2759.72C416.817 2760.27 416.934 2760.86 416.934 2761.46ZM392.586 2610.64H383.367L377.83 2542H398.122L392.586 2610.64ZM337.484 2639.99L332.874 2648.02L271 2618.53L281.146 2600.84L337.484 2639.99ZM360.936 2617.6L352.952 2622.23L314.031 2565.57L331.615 2555.36L360.936 2617.6ZM438.516 2640.92L443.126 2648.98L505 2619.46L494.854 2601.8L438.516 2640.92ZM415.064 2616.09L423.048 2620.73L461.968 2564.06L444.384 2553.85L415.064 2616.09Z" fill="#FF96BA"/>
<path d="M6208.32 3300.78C6208.32 3273.97 6186.71 3252.23 6160.07 3252.23C6133.41 3252.23 6111.8 3273.97 6111.8 3300.78C6111.8 3316.54 6119.3 3336.81 6130.88 3350.88H6189.25C6200.82 3336.81 6208.32 3316.54 6208.32 3300.78ZM6176.16 3411H6143.98L6136.83 3400.96H6183.31L6176.16 3411ZM6189.14 3361.22C6189.14 3363.73 6187.11 3365.77 6184.63 3365.77H6135.36C6134.19 3365.73 6133.07 3365.24 6132.25 3364.39C6131.43 3363.54 6130.98 3362.41 6130.98 3361.23C6130.98 3360.04 6131.43 3358.91 6132.25 3358.06C6133.07 3357.21 6134.19 3356.72 6135.36 3356.68H6184.63C6187.11 3356.68 6189.14 3358.72 6189.14 3361.22ZM6189.5 3376.01C6189.5 3378.52 6187.47 3380.55 6184.97 3380.55H6135.71C6134.51 3380.55 6133.37 3380.07 6132.52 3379.22C6131.67 3378.37 6131.2 3377.21 6131.2 3376.01C6131.2 3374.81 6131.67 3373.65 6132.52 3372.8C6133.37 3371.95 6134.51 3371.47 6135.71 3371.47H6184.97C6185.57 3371.47 6186.15 3371.58 6186.7 3371.81C6187.25 3372.04 6187.75 3372.37 6188.17 3372.79C6188.59 3373.21 6188.93 3373.71 6189.16 3374.27C6189.38 3374.82 6189.5 3375.41 6189.5 3376.01ZM6188.93 3391.46C6188.94 3392.06 6188.82 3392.65 6188.59 3393.2C6188.37 3393.75 6188.03 3394.26 6187.62 3394.68C6187.2 3395.1 6186.7 3395.44 6186.15 3395.67C6185.6 3395.9 6185.01 3396.01 6184.42 3396.01H6135.15C6134.55 3396.01 6133.97 3395.9 6133.42 3395.67C6132.87 3395.44 6132.37 3395.1 6131.95 3394.68C6131.53 3394.26 6131.2 3393.75 6130.98 3393.2C6130.75 3392.65 6130.64 3392.06 6130.64 3391.46C6130.64 3390.86 6130.76 3390.27 6130.98 3389.72C6131.21 3389.17 6131.54 3388.67 6131.96 3388.25C6132.38 3387.83 6132.88 3387.5 6133.42 3387.27C6133.97 3387.04 6134.56 3386.93 6135.15 3386.93H6184.42C6185.01 3386.92 6185.6 3387.04 6186.15 3387.27C6186.69 3387.5 6187.19 3387.83 6187.61 3388.25C6188.03 3388.67 6188.36 3389.17 6188.59 3389.72C6188.82 3390.27 6188.93 3390.86 6188.93 3391.46ZM6164.59 3240.64H6155.37L6149.83 3172H6170.12L6164.59 3240.64ZM6109.48 3269.99L6104.87 3278.02L6043 3248.53L6053.15 3230.84L6109.48 3269.99ZM6132.94 3247.6L6124.95 3252.23L6086.03 3195.57L6103.61 3185.36L6132.94 3247.6ZM6210.52 3270.92L6215.13 3278.98L6277 3249.46L6266.85 3231.8L6210.52 3270.92ZM6187.06 3246.09L6195.05 3250.73L6233.97 3194.06L6216.38 3183.85L6187.06 3246.09Z" fill="#FF96BA"/>
<path d="M6208.32 2098.78C6208.32 2071.97 6186.71 2050.23 6160.07 2050.23C6133.41 2050.23 6111.8 2071.97 6111.8 2098.78C6111.8 2114.54 6119.3 2134.81 6130.88 2148.88H6189.25C6200.82 2134.81 6208.32 2114.54 6208.32 2098.78ZM6176.16 2209H6143.98L6136.83 2198.96H6183.31L6176.16 2209ZM6189.14 2159.22C6189.14 2161.73 6187.11 2163.77 6184.63 2163.77H6135.36C6134.19 2163.73 6133.07 2163.24 6132.25 2162.39C6131.43 2161.54 6130.98 2160.41 6130.98 2159.23C6130.98 2158.04 6131.43 2156.91 6132.25 2156.06C6133.07 2155.21 6134.19 2154.72 6135.36 2154.68H6184.63C6187.11 2154.68 6189.14 2156.72 6189.14 2159.22ZM6189.5 2174.01C6189.5 2176.52 6187.47 2178.55 6184.97 2178.55H6135.71C6134.51 2178.55 6133.37 2178.07 6132.52 2177.22C6131.67 2176.37 6131.2 2175.21 6131.2 2174.01C6131.2 2172.81 6131.67 2171.65 6132.52 2170.8C6133.37 2169.95 6134.51 2169.47 6135.71 2169.47H6184.97C6185.57 2169.47 6186.15 2169.58 6186.7 2169.81C6187.25 2170.04 6187.75 2170.37 6188.17 2170.79C6188.59 2171.21 6188.93 2171.71 6189.16 2172.27C6189.38 2172.82 6189.5 2173.41 6189.5 2174.01ZM6188.93 2189.46C6188.94 2190.06 6188.82 2190.65 6188.59 2191.2C6188.37 2191.75 6188.03 2192.26 6187.62 2192.68C6187.2 2193.1 6186.7 2193.44 6186.15 2193.67C6185.6 2193.9 6185.01 2194.01 6184.42 2194.01H6135.15C6134.55 2194.01 6133.97 2193.9 6133.42 2193.67C6132.87 2193.44 6132.37 2193.1 6131.95 2192.68C6131.53 2192.26 6131.2 2191.75 6130.98 2191.2C6130.75 2190.65 6130.64 2190.06 6130.64 2189.46C6130.64 2188.86 6130.76 2188.27 6130.98 2187.72C6131.21 2187.17 6131.54 2186.67 6131.96 2186.25C6132.38 2185.83 6132.88 2185.5 6133.42 2185.27C6133.97 2185.04 6134.56 2184.93 6135.15 2184.93H6184.42C6185.01 2184.92 6185.6 2185.04 6186.15 2185.27C6186.69 2185.5 6187.19 2185.83 6187.61 2186.25C6188.03 2186.67 6188.36 2187.17 6188.59 2187.72C6188.82 2188.27 6188.93 2188.86 6188.93 2189.46ZM6164.59 2038.64H6155.37L6149.83 1970H6170.12L6164.59 2038.64ZM6109.48 2067.99L6104.87 2076.02L6043 2046.53L6053.15 2028.84L6109.48 2067.99ZM6132.94 2045.6L6124.95 2050.23L6086.03 1993.57L6103.61 1983.36L6132.94 2045.6ZM6210.52 2068.92L6215.13 2076.98L6277 2047.46L6266.85 2029.8L6210.52 2068.92ZM6187.06 2044.09L6195.05 2048.73L6233.97 1992.06L6216.38 1981.85L6187.06 2044.09Z" fill="#FF96BA"/>
<path d="M6608.32 178.78C6608.32 151.969 6586.71 130.234 6560.07 130.234C6533.41 130.234 6511.8 151.969 6511.8 178.78C6511.8 194.542 6519.3 214.807 6530.88 228.879H6589.25C6600.82 214.809 6608.32 194.542 6608.32 178.78ZM6576.16 289H6543.98L6536.83 278.962H6583.31L6576.16 289ZM6589.14 239.224C6589.14 241.733 6587.11 243.769 6584.63 243.769H6535.36C6534.19 243.734 6533.07 243.24 6532.25 242.391C6531.43 241.543 6530.98 240.408 6530.98 239.226C6530.98 238.044 6531.43 236.908 6532.25 236.06C6533.07 235.212 6534.19 234.717 6535.36 234.682H6584.63C6587.11 234.682 6589.14 236.721 6589.14 239.224ZM6589.5 254.006C6589.5 256.515 6587.47 258.549 6584.97 258.549H6535.71C6534.51 258.549 6533.37 258.071 6532.52 257.219C6531.67 256.368 6531.2 255.213 6531.2 254.009C6531.2 252.805 6531.67 251.65 6532.52 250.799C6533.37 249.948 6534.51 249.469 6535.71 249.469H6584.97C6585.57 249.468 6586.15 249.584 6586.7 249.811C6587.25 250.038 6587.75 250.372 6588.17 250.793C6588.59 251.214 6588.93 251.715 6589.16 252.266C6589.38 252.817 6589.5 253.408 6589.5 254.006ZM6588.93 269.459C6588.94 270.057 6588.82 270.649 6588.59 271.201C6588.37 271.753 6588.03 272.256 6587.62 272.679C6587.2 273.102 6586.7 273.437 6586.15 273.667C6585.6 273.896 6585.01 274.014 6584.42 274.015H6535.15C6534.55 274.015 6533.97 273.897 6533.42 273.668C6532.87 273.439 6532.37 273.103 6531.95 272.679C6531.53 272.256 6531.2 271.754 6530.98 271.201C6530.75 270.649 6530.64 270.057 6530.64 269.459C6530.64 268.864 6530.76 268.274 6530.98 267.724C6531.21 267.174 6531.54 266.674 6531.96 266.253C6532.38 265.831 6532.88 265.498 6533.42 265.27C6533.97 265.042 6534.56 264.925 6535.15 264.926H6584.42C6585.01 264.925 6585.6 265.041 6586.15 265.269C6586.69 265.496 6587.19 265.83 6587.61 266.251C6588.03 266.672 6588.36 267.172 6588.59 267.723C6588.82 268.273 6588.93 268.863 6588.93 269.459ZM6564.59 118.641H6555.37L6549.83 50H6570.12L6564.59 118.641ZM6509.48 147.99L6504.87 156.021L6443 126.528L6453.15 108.842L6509.48 147.99ZM6532.94 125.596L6524.95 130.232L6486.03 73.5654L6503.61 63.36L6532.94 125.596ZM6610.52 148.922L6615.13 156.977L6677 127.46L6666.85 109.797L6610.52 148.922ZM6587.06 124.09L6595.05 128.726L6633.97 72.0597L6616.38 61.8543L6587.06 124.09Z" fill="#FF96BA"/>
<path d="M6208.32 896.78C6208.32 869.969 6186.71 848.234 6160.07 848.234C6133.41 848.234 6111.8 869.969 6111.8 896.78C6111.8 912.542 6119.3 932.807 6130.88 946.879H6189.25C6200.82 932.809 6208.32 912.542 6208.32 896.78ZM6176.16 1007H6143.98L6136.83 996.962H6183.31L6176.16 1007ZM6189.14 957.224C6189.14 959.733 6187.11 961.769 6184.63 961.769H6135.36C6134.19 961.734 6133.07 961.24 6132.25 960.391C6131.43 959.543 6130.98 958.408 6130.98 957.226C6130.98 956.044 6131.43 954.908 6132.25 954.06C6133.07 953.212 6134.19 952.717 6135.36 952.682H6184.63C6187.11 952.682 6189.14 954.721 6189.14 957.224ZM6189.5 972.006C6189.5 974.515 6187.47 976.549 6184.97 976.549H6135.71C6134.51 976.549 6133.37 976.071 6132.52 975.219C6131.67 974.368 6131.2 973.213 6131.2 972.009C6131.2 970.805 6131.67 969.65 6132.52 968.799C6133.37 967.948 6134.51 967.469 6135.71 967.469H6184.97C6185.57 967.468 6186.15 967.584 6186.7 967.811C6187.25 968.038 6187.75 968.372 6188.17 968.793C6188.59 969.214 6188.93 969.715 6189.16 970.266C6189.38 970.817 6189.5 971.408 6189.5 972.006ZM6188.93 987.459C6188.94 988.057 6188.82 988.649 6188.59 989.201C6188.37 989.753 6188.03 990.256 6187.62 990.679C6187.2 991.102 6186.7 991.437 6186.15 991.667C6185.6 991.896 6185.01 992.014 6184.42 992.015H6135.15C6134.55 992.015 6133.97 991.897 6133.42 991.668C6132.87 991.439 6132.37 991.103 6131.95 990.679C6131.53 990.256 6131.2 989.754 6130.98 989.201C6130.75 988.649 6130.64 988.057 6130.64 987.459C6130.64 986.864 6130.76 986.274 6130.98 985.724C6131.21 985.174 6131.54 984.674 6131.96 984.253C6132.38 983.831 6132.88 983.498 6133.42 983.27C6133.97 983.042 6134.56 982.925 6135.15 982.926H6184.42C6185.01 982.925 6185.6 983.041 6186.15 983.269C6186.69 983.496 6187.19 983.83 6187.61 984.251C6188.03 984.672 6188.36 985.172 6188.59 985.723C6188.82 986.273 6188.93 986.863 6188.93 987.459ZM6164.59 836.641H6155.37L6149.83 768H6170.12L6164.59 836.641ZM6109.48 865.99L6104.87 874.021L6043 844.528L6053.15 826.842L6109.48 865.99ZM6132.94 843.596L6124.95 848.232L6086.03 791.565L6103.61 781.36L6132.94 843.596ZM6210.52 866.922L6215.13 874.977L6277 845.46L6266.85 827.797L6210.52 866.922ZM6187.06 842.09L6195.05 846.726L6233.97 790.06L6216.38 779.854L6187.06 842.09Z" fill="#FF96BA"/>
<path d="M5268.32 896.78C5268.32 869.969 5246.71 848.234 5220.07 848.234C5193.41 848.234 5171.8 869.969 5171.8 896.78C5171.8 912.542 5179.3 932.807 5190.88 946.879H5249.25C5260.82 932.809 5268.32 912.542 5268.32 896.78ZM5236.16 1007H5203.98L5196.83 996.962H5243.31L5236.16 1007ZM5249.14 957.224C5249.14 959.733 5247.11 961.769 5244.63 961.769H5195.36C5194.19 961.734 5193.07 961.24 5192.25 960.391C5191.43 959.543 5190.98 958.408 5190.98 957.226C5190.98 956.044 5191.43 954.908 5192.25 954.06C5193.07 953.212 5194.19 952.717 5195.36 952.682H5244.63C5247.11 952.682 5249.14 954.721 5249.14 957.224ZM5249.5 972.006C5249.5 974.515 5247.47 976.549 5244.97 976.549H5195.71C5194.51 976.549 5193.37 976.071 5192.52 975.219C5191.67 974.368 5191.2 973.213 5191.2 972.009C5191.2 970.805 5191.67 969.65 5192.52 968.799C5193.37 967.948 5194.51 967.469 5195.71 967.469H5244.97C5245.57 967.468 5246.15 967.584 5246.7 967.811C5247.25 968.038 5247.75 968.372 5248.17 968.793C5248.59 969.214 5248.93 969.715 5249.16 970.266C5249.38 970.817 5249.5 971.408 5249.5 972.006ZM5248.93 987.459C5248.94 988.057 5248.82 988.649 5248.59 989.201C5248.37 989.753 5248.03 990.256 5247.62 990.679C5247.2 991.102 5246.7 991.437 5246.15 991.667C5245.6 991.896 5245.01 992.014 5244.42 992.015H5195.15C5194.55 992.015 5193.97 991.897 5193.42 991.668C5192.87 991.439 5192.37 991.103 5191.95 990.679C5191.53 990.256 5191.2 989.754 5190.98 989.201C5190.75 988.649 5190.64 988.057 5190.64 987.459C5190.64 986.864 5190.76 986.274 5190.98 985.724C5191.21 985.174 5191.54 984.674 5191.96 984.253C5192.38 983.831 5192.88 983.498 5193.42 983.27C5193.97 983.042 5194.56 982.925 5195.15 982.926H5244.42C5245.01 982.925 5245.6 983.041 5246.15 983.269C5246.69 983.496 5247.19 983.83 5247.61 984.251C5248.03 984.672 5248.36 985.172 5248.59 985.723C5248.82 986.273 5248.93 986.863 5248.93 987.459ZM5224.59 836.641H5215.37L5209.83 768H5230.12L5224.59 836.641ZM5169.48 865.99L5164.87 874.021L5103 844.528L5113.15 826.842L5169.48 865.99ZM5192.94 843.596L5184.95 848.232L5146.03 791.565L5163.61 781.36L5192.94 843.596ZM5270.52 866.922L5275.13 874.977L5337 845.46L5326.85 827.797L5270.52 866.922ZM5247.06 842.09L5255.05 846.726L5293.97 790.06L5276.38 779.854L5247.06 842.09Z" fill="#FF96BA"/>
<path d="M4664.32 178.78C4664.32 151.969 4642.71 130.234 4616.07 130.234C4589.41 130.234 4567.8 151.969 4567.8 178.78C4567.8 194.542 4575.3 214.807 4586.88 228.879H4645.25C4656.82 214.809 4664.32 194.542 4664.32 178.78ZM4632.16 289H4599.98L4592.83 278.962H4639.31L4632.16 289ZM4645.14 239.224C4645.14 241.733 4643.11 243.769 4640.63 243.769H4591.36C4590.19 243.734 4589.07 243.24 4588.25 242.391C4587.43 241.543 4586.98 240.408 4586.98 239.226C4586.98 238.044 4587.43 236.908 4588.25 236.06C4589.07 235.212 4590.19 234.717 4591.36 234.682H4640.63C4643.11 234.682 4645.14 236.721 4645.14 239.224ZM4645.5 254.006C4645.5 256.515 4643.47 258.549 4640.97 258.549H4591.71C4590.51 258.549 4589.37 258.071 4588.52 257.219C4587.67 256.368 4587.2 255.213 4587.2 254.009C4587.2 252.805 4587.67 251.65 4588.52 250.799C4589.37 249.948 4590.51 249.469 4591.71 249.469H4640.97C4641.57 249.468 4642.15 249.584 4642.7 249.811C4643.25 250.038 4643.75 250.372 4644.17 250.793C4644.59 251.214 4644.93 251.715 4645.16 252.266C4645.38 252.817 4645.5 253.408 4645.5 254.006ZM4644.93 269.459C4644.94 270.057 4644.82 270.649 4644.59 271.201C4644.37 271.753 4644.03 272.256 4643.62 272.679C4643.2 273.102 4642.7 273.437 4642.15 273.667C4641.6 273.896 4641.01 274.014 4640.42 274.015H4591.15C4590.55 274.015 4589.97 273.897 4589.42 273.668C4588.87 273.439 4588.37 273.103 4587.95 272.679C4587.53 272.256 4587.2 271.754 4586.98 271.201C4586.75 270.649 4586.64 270.057 4586.64 269.459C4586.64 268.864 4586.76 268.274 4586.98 267.724C4587.21 267.174 4587.54 266.674 4587.96 266.253C4588.38 265.831 4588.88 265.498 4589.42 265.27C4589.97 265.042 4590.56 264.925 4591.15 264.926H4640.42C4641.01 264.925 4641.6 265.041 4642.15 265.269C4642.69 265.496 4643.19 265.83 4643.61 266.251C4644.03 266.672 4644.36 267.172 4644.59 267.723C4644.82 268.273 4644.93 268.863 4644.93 269.459ZM4620.59 118.641H4611.37L4605.83 50H4626.12L4620.59 118.641ZM4565.48 147.99L4560.87 156.021L4499 126.528L4509.15 108.842L4565.48 147.99ZM4588.94 125.596L4580.95 130.232L4542.03 73.5654L4559.61 63.36L4588.94 125.596ZM4666.52 148.922L4671.13 156.977L4733 127.46L4722.85 109.797L4666.52 148.922ZM4643.06 124.09L4651.05 128.726L4689.97 72.0597L4672.38 61.8543L4643.06 124.09Z" fill="#FF96BA"/>
<path d="M5736.32 1469.78C5736.32 1442.97 5714.71 1421.23 5688.07 1421.23C5661.41 1421.23 5639.8 1442.97 5639.8 1469.78C5639.8 1485.54 5647.3 1505.81 5658.88 1519.88H5717.25C5728.82 1505.81 5736.32 1485.54 5736.32 1469.78ZM5704.16 1580H5671.98L5664.83 1569.96H5711.31L5704.16 1580ZM5717.14 1530.22C5717.14 1532.73 5715.11 1534.77 5712.63 1534.77H5663.36C5662.19 1534.73 5661.07 1534.24 5660.25 1533.39C5659.43 1532.54 5658.98 1531.41 5658.98 1530.23C5658.98 1529.04 5659.43 1527.91 5660.25 1527.06C5661.07 1526.21 5662.19 1525.72 5663.36 1525.68H5712.63C5715.11 1525.68 5717.14 1527.72 5717.14 1530.22ZM5717.5 1545.01C5717.5 1547.52 5715.47 1549.55 5712.97 1549.55H5663.71C5662.51 1549.55 5661.37 1549.07 5660.52 1548.22C5659.67 1547.37 5659.2 1546.21 5659.2 1545.01C5659.2 1543.81 5659.67 1542.65 5660.52 1541.8C5661.37 1540.95 5662.51 1540.47 5663.71 1540.47H5712.97C5713.57 1540.47 5714.15 1540.58 5714.7 1540.81C5715.25 1541.04 5715.75 1541.37 5716.17 1541.79C5716.59 1542.21 5716.93 1542.71 5717.16 1543.27C5717.38 1543.82 5717.5 1544.41 5717.5 1545.01ZM5716.93 1560.46C5716.94 1561.06 5716.82 1561.65 5716.59 1562.2C5716.37 1562.75 5716.03 1563.26 5715.62 1563.68C5715.2 1564.1 5714.7 1564.44 5714.15 1564.67C5713.6 1564.9 5713.01 1565.01 5712.42 1565.01H5663.15C5662.55 1565.01 5661.97 1564.9 5661.42 1564.67C5660.87 1564.44 5660.37 1564.1 5659.95 1563.68C5659.53 1563.26 5659.2 1562.75 5658.98 1562.2C5658.75 1561.65 5658.64 1561.06 5658.64 1560.46C5658.64 1559.86 5658.76 1559.27 5658.98 1558.72C5659.21 1558.17 5659.54 1557.67 5659.96 1557.25C5660.38 1556.83 5660.88 1556.5 5661.42 1556.27C5661.97 1556.04 5662.56 1555.93 5663.15 1555.93H5712.42C5713.01 1555.92 5713.6 1556.04 5714.15 1556.27C5714.69 1556.5 5715.19 1556.83 5715.61 1557.25C5716.03 1557.67 5716.36 1558.17 5716.59 1558.72C5716.82 1559.27 5716.93 1559.86 5716.93 1560.46ZM5692.59 1409.64H5683.37L5677.83 1341H5698.12L5692.59 1409.64ZM5637.48 1438.99L5632.87 1447.02L5571 1417.53L5581.15 1399.84L5637.48 1438.99ZM5660.94 1416.6L5652.95 1421.23L5614.03 1364.57L5631.61 1354.36L5660.94 1416.6ZM5738.52 1439.92L5743.13 1447.98L5805 1418.46L5794.85 1400.8L5738.52 1439.92ZM5715.06 1415.09L5723.05 1419.73L5761.97 1363.06L5744.38 1352.85L5715.06 1415.09Z" fill="#FF96BA"/>
<path d="M5268.32 2098.78C5268.32 2071.97 5246.71 2050.23 5220.07 2050.23C5193.41 2050.23 5171.8 2071.97 5171.8 2098.78C5171.8 2114.54 5179.3 2134.81 5190.88 2148.88H5249.25C5260.82 2134.81 5268.32 2114.54 5268.32 2098.78ZM5236.16 2209H5203.98L5196.83 2198.96H5243.31L5236.16 2209ZM5249.14 2159.22C5249.14 2161.73 5247.11 2163.77 5244.63 2163.77H5195.36C5194.19 2163.73 5193.07 2163.24 5192.25 2162.39C5191.43 2161.54 5190.98 2160.41 5190.98 2159.23C5190.98 2158.04 5191.43 2156.91 5192.25 2156.06C5193.07 2155.21 5194.19 2154.72 5195.36 2154.68H5244.63C5247.11 2154.68 5249.14 2156.72 5249.14 2159.22ZM5249.5 2174.01C5249.5 2176.52 5247.47 2178.55 5244.97 2178.55H5195.71C5194.51 2178.55 5193.37 2178.07 5192.52 2177.22C5191.67 2176.37 5191.2 2175.21 5191.2 2174.01C5191.2 2172.81 5191.67 2171.65 5192.52 2170.8C5193.37 2169.95 5194.51 2169.47 5195.71 2169.47H5244.97C5245.57 2169.47 5246.15 2169.58 5246.7 2169.81C5247.25 2170.04 5247.75 2170.37 5248.17 2170.79C5248.59 2171.21 5248.93 2171.71 5249.16 2172.27C5249.38 2172.82 5249.5 2173.41 5249.5 2174.01ZM5248.93 2189.46C5248.94 2190.06 5248.82 2190.65 5248.59 2191.2C5248.37 2191.75 5248.03 2192.26 5247.62 2192.68C5247.2 2193.1 5246.7 2193.44 5246.15 2193.67C5245.6 2193.9 5245.01 2194.01 5244.42 2194.01H5195.15C5194.55 2194.01 5193.97 2193.9 5193.42 2193.67C5192.87 2193.44 5192.37 2193.1 5191.95 2192.68C5191.53 2192.26 5191.2 2191.75 5190.98 2191.2C5190.75 2190.65 5190.64 2190.06 5190.64 2189.46C5190.64 2188.86 5190.76 2188.27 5190.98 2187.72C5191.21 2187.17 5191.54 2186.67 5191.96 2186.25C5192.38 2185.83 5192.88 2185.5 5193.42 2185.27C5193.97 2185.04 5194.56 2184.93 5195.15 2184.93H5244.42C5245.01 2184.92 5245.6 2185.04 5246.15 2185.27C5246.69 2185.5 5247.19 2185.83 5247.61 2186.25C5248.03 2186.67 5248.36 2187.17 5248.59 2187.72C5248.82 2188.27 5248.93 2188.86 5248.93 2189.46ZM5224.59 2038.64H5215.37L5209.83 1970H5230.12L5224.59 2038.64ZM5169.48 2067.99L5164.87 2076.02L5103 2046.53L5113.15 2028.84L5169.48 2067.99ZM5192.94 2045.6L5184.95 2050.23L5146.03 1993.57L5163.61 1983.36L5192.94 2045.6ZM5270.52 2068.92L5275.13 2076.98L5337 2047.46L5326.85 2029.8L5270.52 2068.92ZM5247.06 2044.09L5255.05 2048.73L5293.97 1992.06L5276.38 1981.85L5247.06 2044.09Z" fill="#FF96BA"/>
<path d="M5736.32 2670.78C5736.32 2643.97 5714.71 2622.23 5688.07 2622.23C5661.41 2622.23 5639.8 2643.97 5639.8 2670.78C5639.8 2686.54 5647.3 2706.81 5658.88 2720.88H5717.25C5728.82 2706.81 5736.32 2686.54 5736.32 2670.78ZM5704.16 2781H5671.98L5664.83 2770.96H5711.31L5704.16 2781ZM5717.14 2731.22C5717.14 2733.73 5715.11 2735.77 5712.63 2735.77H5663.36C5662.19 2735.73 5661.07 2735.24 5660.25 2734.39C5659.43 2733.54 5658.98 2732.41 5658.98 2731.23C5658.98 2730.04 5659.43 2728.91 5660.25 2728.06C5661.07 2727.21 5662.19 2726.72 5663.36 2726.68H5712.63C5715.11 2726.68 5717.14 2728.72 5717.14 2731.22ZM5717.5 2746.01C5717.5 2748.52 5715.47 2750.55 5712.97 2750.55H5663.71C5662.51 2750.55 5661.37 2750.07 5660.52 2749.22C5659.67 2748.37 5659.2 2747.21 5659.2 2746.01C5659.2 2744.81 5659.67 2743.65 5660.52 2742.8C5661.37 2741.95 5662.51 2741.47 5663.71 2741.47H5712.97C5713.57 2741.47 5714.15 2741.58 5714.7 2741.81C5715.25 2742.04 5715.75 2742.37 5716.17 2742.79C5716.59 2743.21 5716.93 2743.71 5717.16 2744.27C5717.38 2744.82 5717.5 2745.41 5717.5 2746.01ZM5716.93 2761.46C5716.94 2762.06 5716.82 2762.65 5716.59 2763.2C5716.37 2763.75 5716.03 2764.26 5715.62 2764.68C5715.2 2765.1 5714.7 2765.44 5714.15 2765.67C5713.6 2765.9 5713.01 2766.01 5712.42 2766.01H5663.15C5662.55 2766.01 5661.97 2765.9 5661.42 2765.67C5660.87 2765.44 5660.37 2765.1 5659.95 2764.68C5659.53 2764.26 5659.2 2763.75 5658.98 2763.2C5658.75 2762.65 5658.64 2762.06 5658.64 2761.46C5658.64 2760.86 5658.76 2760.27 5658.98 2759.72C5659.21 2759.17 5659.54 2758.67 5659.96 2758.25C5660.38 2757.83 5660.88 2757.5 5661.42 2757.27C5661.97 2757.04 5662.56 2756.93 5663.15 2756.93H5712.42C5713.01 2756.92 5713.6 2757.04 5714.15 2757.27C5714.69 2757.5 5715.19 2757.83 5715.61 2758.25C5716.03 2758.67 5716.36 2759.17 5716.59 2759.72C5716.82 2760.27 5716.93 2760.86 5716.93 2761.46ZM5692.59 2610.64H5683.37L5677.83 2542H5698.12L5692.59 2610.64ZM5637.48 2639.99L5632.87 2648.02L5571 2618.53L5581.15 2600.84L5637.48 2639.99ZM5660.94 2617.6L5652.95 2622.23L5614.03 2565.57L5631.61 2555.36L5660.94 2617.6ZM5738.52 2640.92L5743.13 2648.98L5805 2619.46L5794.85 2601.8L5738.52 2640.92ZM5715.06 2616.09L5723.05 2620.73L5761.97 2564.06L5744.38 2553.85L5715.06 2616.09Z" fill="#FF96BA"/>
<path d="M4054.32 2098.78C4054.32 2071.97 4032.71 2050.23 4006.07 2050.23C3979.41 2050.23 3957.8 2071.97 3957.8 2098.78C3957.8 2114.54 3965.3 2134.81 3976.88 2148.88H4035.25C4046.82 2134.81 4054.32 2114.54 4054.32 2098.78ZM4022.16 2209H3989.98L3982.83 2198.96H4029.31L4022.16 2209ZM4035.14 2159.22C4035.14 2161.73 4033.11 2163.77 4030.63 2163.77H3981.36C3980.19 2163.73 3979.07 2163.24 3978.25 2162.39C3977.43 2161.54 3976.98 2160.41 3976.98 2159.23C3976.98 2158.04 3977.43 2156.91 3978.25 2156.06C3979.07 2155.21 3980.19 2154.72 3981.36 2154.68H4030.63C4033.11 2154.68 4035.14 2156.72 4035.14 2159.22ZM4035.5 2174.01C4035.5 2176.52 4033.47 2178.55 4030.97 2178.55H3981.71C3980.51 2178.55 3979.37 2178.07 3978.52 2177.22C3977.67 2176.37 3977.2 2175.21 3977.2 2174.01C3977.2 2172.81 3977.67 2171.65 3978.52 2170.8C3979.37 2169.95 3980.51 2169.47 3981.71 2169.47H4030.97C4031.57 2169.47 4032.15 2169.58 4032.7 2169.81C4033.25 2170.04 4033.75 2170.37 4034.17 2170.79C4034.59 2171.21 4034.93 2171.71 4035.16 2172.27C4035.38 2172.82 4035.5 2173.41 4035.5 2174.01ZM4034.93 2189.46C4034.94 2190.06 4034.82 2190.65 4034.59 2191.2C4034.37 2191.75 4034.03 2192.26 4033.62 2192.68C4033.2 2193.1 4032.7 2193.44 4032.15 2193.67C4031.6 2193.9 4031.01 2194.01 4030.42 2194.01H3981.15C3980.55 2194.01 3979.97 2193.9 3979.42 2193.67C3978.87 2193.44 3978.37 2193.1 3977.95 2192.68C3977.53 2192.26 3977.2 2191.75 3976.98 2191.2C3976.75 2190.65 3976.64 2190.06 3976.64 2189.46C3976.64 2188.86 3976.76 2188.27 3976.98 2187.72C3977.21 2187.17 3977.54 2186.67 3977.96 2186.25C3978.38 2185.83 3978.88 2185.5 3979.42 2185.27C3979.97 2185.04 3980.56 2184.93 3981.15 2184.93H4030.42C4031.01 2184.92 4031.6 2185.04 4032.15 2185.27C4032.69 2185.5 4033.19 2185.83 4033.61 2186.25C4034.03 2186.67 4034.36 2187.17 4034.59 2187.72C4034.82 2188.27 4034.93 2188.86 4034.93 2189.46ZM4010.59 2038.64H4001.37L3995.83 1970H4016.12L4010.59 2038.64ZM3955.48 2067.99L3950.87 2076.02L3889 2046.53L3899.15 2028.84L3955.48 2067.99ZM3978.94 2045.6L3970.95 2050.23L3932.03 1993.57L3949.61 1983.36L3978.94 2045.6ZM4056.52 2068.92L4061.13 2076.98L4123 2047.46L4112.85 2029.8L4056.52 2068.92ZM4033.06 2044.09L4041.05 2048.73L4079.97 1992.06L4062.38 1981.85L4033.06 2044.09Z" fill="#FF96BA"/>
<path d="M3503.32 178.78C3503.32 151.969 3481.71 130.234 3455.07 130.234C3428.41 130.234 3406.8 151.969 3406.8 178.78C3406.8 194.542 3414.3 214.807 3425.88 228.879H3484.25C3495.82 214.809 3503.32 194.542 3503.32 178.78ZM3471.16 289H3438.98L3431.83 278.962H3478.31L3471.16 289ZM3484.14 239.224C3484.14 241.733 3482.11 243.769 3479.63 243.769H3430.36C3429.19 243.734 3428.07 243.24 3427.25 242.391C3426.43 241.543 3425.98 240.408 3425.98 239.226C3425.98 238.044 3426.43 236.908 3427.25 236.06C3428.07 235.212 3429.19 234.717 3430.36 234.682H3479.63C3482.11 234.682 3484.14 236.721 3484.14 239.224ZM3484.5 254.006C3484.5 256.515 3482.47 258.549 3479.97 258.549H3430.71C3429.51 258.549 3428.37 258.071 3427.52 257.219C3426.67 256.368 3426.2 255.213 3426.2 254.009C3426.2 252.805 3426.67 251.65 3427.52 250.799C3428.37 249.948 3429.51 249.469 3430.71 249.469H3479.97C3480.57 249.468 3481.15 249.584 3481.7 249.811C3482.25 250.038 3482.75 250.372 3483.17 250.793C3483.59 251.214 3483.93 251.715 3484.16 252.266C3484.38 252.817 3484.5 253.408 3484.5 254.006ZM3483.93 269.459C3483.94 270.057 3483.82 270.649 3483.59 271.201C3483.37 271.753 3483.03 272.256 3482.62 272.679C3482.2 273.102 3481.7 273.437 3481.15 273.667C3480.6 273.896 3480.01 274.014 3479.42 274.015H3430.15C3429.55 274.015 3428.97 273.897 3428.42 273.668C3427.87 273.439 3427.37 273.103 3426.95 272.679C3426.53 272.256 3426.2 271.754 3425.98 271.201C3425.75 270.649 3425.64 270.057 3425.64 269.459C3425.64 268.864 3425.76 268.274 3425.98 267.724C3426.21 267.174 3426.54 266.674 3426.96 266.253C3427.38 265.831 3427.88 265.498 3428.42 265.27C3428.97 265.042 3429.56 264.925 3430.15 264.926H3479.42C3480.01 264.925 3480.6 265.041 3481.15 265.269C3481.69 265.496 3482.19 265.83 3482.61 266.251C3483.03 266.672 3483.36 267.172 3483.59 267.723C3483.82 268.273 3483.93 268.863 3483.93 269.459ZM3459.59 118.641H3450.37L3444.83 50H3465.12L3459.59 118.641ZM3404.48 147.99L3399.87 156.021L3338 126.528L3348.15 108.842L3404.48 147.99ZM3427.94 125.596L3419.95 130.232L3381.03 73.5654L3398.61 63.36L3427.94 125.596ZM3505.52 148.922L3510.13 156.977L3572 127.46L3561.85 109.797L3505.52 148.922ZM3482.06 124.09L3490.05 128.726L3528.97 72.0597L3511.38 61.8543L3482.06 124.09Z" fill="#FF96BA"/>
<path d="M4664.32 1475.78C4664.32 1448.97 4642.71 1427.23 4616.07 1427.23C4589.41 1427.23 4567.8 1448.97 4567.8 1475.78C4567.8 1491.54 4575.3 1511.81 4586.88 1525.88H4645.25C4656.82 1511.81 4664.32 1491.54 4664.32 1475.78ZM4632.16 1586H4599.98L4592.83 1575.96H4639.31L4632.16 1586ZM4645.14 1536.22C4645.14 1538.73 4643.11 1540.77 4640.63 1540.77H4591.36C4590.19 1540.73 4589.07 1540.24 4588.25 1539.39C4587.43 1538.54 4586.98 1537.41 4586.98 1536.23C4586.98 1535.04 4587.43 1533.91 4588.25 1533.06C4589.07 1532.21 4590.19 1531.72 4591.36 1531.68H4640.63C4643.11 1531.68 4645.14 1533.72 4645.14 1536.22ZM4645.5 1551.01C4645.5 1553.52 4643.47 1555.55 4640.97 1555.55H4591.71C4590.51 1555.55 4589.37 1555.07 4588.52 1554.22C4587.67 1553.37 4587.2 1552.21 4587.2 1551.01C4587.2 1549.81 4587.67 1548.65 4588.52 1547.8C4589.37 1546.95 4590.51 1546.47 4591.71 1546.47H4640.97C4641.57 1546.47 4642.15 1546.58 4642.7 1546.81C4643.25 1547.04 4643.75 1547.37 4644.17 1547.79C4644.59 1548.21 4644.93 1548.71 4645.16 1549.27C4645.38 1549.82 4645.5 1550.41 4645.5 1551.01ZM4644.93 1566.46C4644.94 1567.06 4644.82 1567.65 4644.59 1568.2C4644.37 1568.75 4644.03 1569.26 4643.62 1569.68C4643.2 1570.1 4642.7 1570.44 4642.15 1570.67C4641.6 1570.9 4641.01 1571.01 4640.42 1571.01H4591.15C4590.55 1571.01 4589.97 1570.9 4589.42 1570.67C4588.87 1570.44 4588.37 1570.1 4587.95 1569.68C4587.53 1569.26 4587.2 1568.75 4586.98 1568.2C4586.75 1567.65 4586.64 1567.06 4586.64 1566.46C4586.64 1565.86 4586.76 1565.27 4586.98 1564.72C4587.21 1564.17 4587.54 1563.67 4587.96 1563.25C4588.38 1562.83 4588.88 1562.5 4589.42 1562.27C4589.97 1562.04 4590.56 1561.93 4591.15 1561.93H4640.42C4641.01 1561.92 4641.6 1562.04 4642.15 1562.27C4642.69 1562.5 4643.19 1562.83 4643.61 1563.25C4644.03 1563.67 4644.36 1564.17 4644.59 1564.72C4644.82 1565.27 4644.93 1565.86 4644.93 1566.46ZM4620.59 1415.64H4611.37L4605.83 1347H4626.12L4620.59 1415.64ZM4565.48 1444.99L4560.87 1453.02L4499 1423.53L4509.15 1405.84L4565.48 1444.99ZM4588.94 1422.6L4580.95 1427.23L4542.03 1370.57L4559.61 1360.36L4588.94 1422.6ZM4666.52 1445.92L4671.13 1453.98L4733 1424.46L4722.85 1406.8L4666.52 1445.92ZM4643.06 1421.09L4651.05 1425.73L4689.97 1369.06L4672.38 1358.85L4643.06 1421.09Z" fill="#FF96BA"/>
<path d="M3531.32 1475.78C3531.32 1448.97 3509.71 1427.23 3483.07 1427.23C3456.41 1427.23 3434.8 1448.97 3434.8 1475.78C3434.8 1491.54 3442.3 1511.81 3453.88 1525.88H3512.25C3523.82 1511.81 3531.32 1491.54 3531.32 1475.78ZM3499.16 1586H3466.98L3459.83 1575.96H3506.31L3499.16 1586ZM3512.14 1536.22C3512.14 1538.73 3510.11 1540.77 3507.63 1540.77H3458.36C3457.19 1540.73 3456.07 1540.24 3455.25 1539.39C3454.43 1538.54 3453.98 1537.41 3453.98 1536.23C3453.98 1535.04 3454.43 1533.91 3455.25 1533.06C3456.07 1532.21 3457.19 1531.72 3458.36 1531.68H3507.63C3510.11 1531.68 3512.14 1533.72 3512.14 1536.22ZM3512.5 1551.01C3512.5 1553.52 3510.47 1555.55 3507.97 1555.55H3458.71C3457.51 1555.55 3456.37 1555.07 3455.52 1554.22C3454.67 1553.37 3454.2 1552.21 3454.2 1551.01C3454.2 1549.81 3454.67 1548.65 3455.52 1547.8C3456.37 1546.95 3457.51 1546.47 3458.71 1546.47H3507.97C3508.57 1546.47 3509.15 1546.58 3509.7 1546.81C3510.25 1547.04 3510.75 1547.37 3511.17 1547.79C3511.59 1548.21 3511.93 1548.71 3512.16 1549.27C3512.38 1549.82 3512.5 1550.41 3512.5 1551.01ZM3511.93 1566.46C3511.94 1567.06 3511.82 1567.65 3511.59 1568.2C3511.37 1568.75 3511.03 1569.26 3510.62 1569.68C3510.2 1570.1 3509.7 1570.44 3509.15 1570.67C3508.6 1570.9 3508.01 1571.01 3507.42 1571.01H3458.15C3457.55 1571.01 3456.97 1570.9 3456.42 1570.67C3455.87 1570.44 3455.37 1570.1 3454.95 1569.68C3454.53 1569.26 3454.2 1568.75 3453.98 1568.2C3453.75 1567.65 3453.64 1567.06 3453.64 1566.46C3453.64 1565.86 3453.76 1565.27 3453.98 1564.72C3454.21 1564.17 3454.54 1563.67 3454.96 1563.25C3455.38 1562.83 3455.88 1562.5 3456.42 1562.27C3456.97 1562.04 3457.56 1561.93 3458.15 1561.93H3507.42C3508.01 1561.92 3508.6 1562.04 3509.15 1562.27C3509.69 1562.5 3510.19 1562.83 3510.61 1563.25C3511.03 1563.67 3511.36 1564.17 3511.59 1564.72C3511.82 1565.27 3511.93 1565.86 3511.93 1566.46ZM3487.59 1415.64H3478.37L3472.83 1347H3493.12L3487.59 1415.64ZM3432.48 1444.99L3427.87 1453.02L3366 1423.53L3376.15 1405.84L3432.48 1444.99ZM3455.94 1422.6L3447.95 1427.23L3409.03 1370.57L3426.61 1360.36L3455.94 1422.6ZM3533.52 1445.92L3538.13 1453.98L3600 1424.46L3589.85 1406.8L3533.52 1445.92ZM3510.06 1421.09L3518.05 1425.73L3556.97 1369.06L3539.38 1358.85L3510.06 1421.09Z" fill="#FF96BA"/>
<path d="M1418.32 2670.78C1418.32 2643.97 1396.71 2622.23 1370.07 2622.23C1343.41 2622.23 1321.8 2643.97 1321.8 2670.78C1321.8 2686.54 1329.3 2706.81 1340.88 2720.88H1399.25C1410.82 2706.81 1418.32 2686.54 1418.32 2670.78ZM1386.16 2781H1353.98L1346.83 2770.96H1393.31L1386.16 2781ZM1399.14 2731.22C1399.14 2733.73 1397.11 2735.77 1394.63 2735.77H1345.36C1344.19 2735.73 1343.07 2735.24 1342.25 2734.39C1341.43 2733.54 1340.98 2732.41 1340.98 2731.23C1340.98 2730.04 1341.43 2728.91 1342.25 2728.06C1343.07 2727.21 1344.19 2726.72 1345.36 2726.68H1394.63C1397.11 2726.68 1399.14 2728.72 1399.14 2731.22ZM1399.5 2746.01C1399.5 2748.52 1397.47 2750.55 1394.97 2750.55H1345.71C1344.51 2750.55 1343.37 2750.07 1342.52 2749.22C1341.67 2748.37 1341.2 2747.21 1341.2 2746.01C1341.2 2744.81 1341.67 2743.65 1342.52 2742.8C1343.37 2741.95 1344.51 2741.47 1345.71 2741.47H1394.97C1395.57 2741.47 1396.15 2741.58 1396.7 2741.81C1397.25 2742.04 1397.75 2742.37 1398.17 2742.79C1398.59 2743.21 1398.93 2743.71 1399.16 2744.27C1399.38 2744.82 1399.5 2745.41 1399.5 2746.01ZM1398.93 2761.46C1398.94 2762.06 1398.82 2762.65 1398.59 2763.2C1398.37 2763.75 1398.03 2764.26 1397.62 2764.68C1397.2 2765.1 1396.7 2765.44 1396.15 2765.67C1395.6 2765.9 1395.01 2766.01 1394.42 2766.01H1345.15C1344.55 2766.01 1343.97 2765.9 1343.42 2765.67C1342.87 2765.44 1342.37 2765.1 1341.95 2764.68C1341.53 2764.26 1341.2 2763.75 1340.98 2763.2C1340.75 2762.65 1340.64 2762.06 1340.64 2761.46C1340.64 2760.86 1340.76 2760.27 1340.98 2759.72C1341.21 2759.17 1341.54 2758.67 1341.96 2758.25C1342.38 2757.83 1342.88 2757.5 1343.42 2757.27C1343.97 2757.04 1344.56 2756.93 1345.15 2756.93H1394.42C1395.01 2756.92 1395.6 2757.04 1396.15 2757.27C1396.69 2757.5 1397.19 2757.83 1397.61 2758.25C1398.03 2758.67 1398.36 2759.17 1398.59 2759.72C1398.82 2760.27 1398.93 2760.86 1398.93 2761.46ZM1374.59 2610.64H1365.37L1359.83 2542H1380.12L1374.59 2610.64ZM1319.48 2639.99L1314.87 2648.02L1253 2618.53L1263.15 2600.84L1319.48 2639.99ZM1342.94 2617.6L1334.95 2622.23L1296.03 2565.57L1313.61 2555.36L1342.94 2617.6ZM1420.52 2640.92L1425.13 2648.98L1487 2619.46L1476.85 2601.8L1420.52 2640.92ZM1397.06 2616.09L1405.05 2620.73L1443.97 2564.06L1426.38 2553.85L1397.06 2616.09Z" fill="#FF96BA"/>
<path d="M1910.32 3293.78C1910.32 3266.97 1888.71 3245.23 1862.07 3245.23C1835.41 3245.23 1813.8 3266.97 1813.8 3293.78C1813.8 3309.54 1821.3 3329.81 1832.88 3343.88H1891.25C1902.82 3329.81 1910.32 3309.54 1910.32 3293.78ZM1878.16 3404H1845.98L1838.83 3393.96H1885.31L1878.16 3404ZM1891.14 3354.22C1891.14 3356.73 1889.11 3358.77 1886.63 3358.77H1837.36C1836.19 3358.73 1835.07 3358.24 1834.25 3357.39C1833.43 3356.54 1832.98 3355.41 1832.98 3354.23C1832.98 3353.04 1833.43 3351.91 1834.25 3351.06C1835.07 3350.21 1836.19 3349.72 1837.36 3349.68H1886.63C1889.11 3349.68 1891.14 3351.72 1891.14 3354.22ZM1891.5 3369.01C1891.5 3371.52 1889.47 3373.55 1886.97 3373.55H1837.71C1836.51 3373.55 1835.37 3373.07 1834.52 3372.22C1833.67 3371.37 1833.2 3370.21 1833.2 3369.01C1833.2 3367.81 1833.67 3366.65 1834.52 3365.8C1835.37 3364.95 1836.51 3364.47 1837.71 3364.47H1886.97C1887.57 3364.47 1888.15 3364.58 1888.7 3364.81C1889.25 3365.04 1889.75 3365.37 1890.17 3365.79C1890.59 3366.21 1890.93 3366.71 1891.16 3367.27C1891.38 3367.82 1891.5 3368.41 1891.5 3369.01ZM1890.93 3384.46C1890.94 3385.06 1890.82 3385.65 1890.59 3386.2C1890.37 3386.75 1890.03 3387.26 1889.62 3387.68C1889.2 3388.1 1888.7 3388.44 1888.15 3388.67C1887.6 3388.9 1887.01 3389.01 1886.42 3389.01H1837.15C1836.55 3389.01 1835.97 3388.9 1835.42 3388.67C1834.87 3388.44 1834.37 3388.1 1833.95 3387.68C1833.53 3387.26 1833.2 3386.75 1832.98 3386.2C1832.75 3385.65 1832.64 3385.06 1832.64 3384.46C1832.64 3383.86 1832.76 3383.27 1832.98 3382.72C1833.21 3382.17 1833.54 3381.67 1833.96 3381.25C1834.38 3380.83 1834.88 3380.5 1835.42 3380.27C1835.97 3380.04 1836.56 3379.93 1837.15 3379.93H1886.42C1887.01 3379.92 1887.6 3380.04 1888.15 3380.27C1888.69 3380.5 1889.19 3380.83 1889.61 3381.25C1890.03 3381.67 1890.36 3382.17 1890.59 3382.72C1890.82 3383.27 1890.93 3383.86 1890.93 3384.46ZM1866.59 3233.64H1857.37L1851.83 3165H1872.12L1866.59 3233.64ZM1811.48 3262.99L1806.87 3271.02L1745 3241.53L1755.15 3223.84L1811.48 3262.99ZM1834.94 3240.6L1826.95 3245.23L1788.03 3188.57L1805.61 3178.36L1834.94 3240.6ZM1912.52 3263.92L1917.13 3271.98L1979 3242.46L1968.85 3224.8L1912.52 3263.92ZM1889.06 3239.09L1897.05 3243.73L1935.97 3187.06L1918.38 3176.85L1889.06 3239.09Z" fill="#FF96BA"/>
<path d="M4054.32 3293.78C4054.32 3266.97 4032.71 3245.23 4006.07 3245.23C3979.41 3245.23 3957.8 3266.97 3957.8 3293.78C3957.8 3309.54 3965.3 3329.81 3976.88 3343.88H4035.25C4046.82 3329.81 4054.32 3309.54 4054.32 3293.78ZM4022.16 3404H3989.98L3982.83 3393.96H4029.31L4022.16 3404ZM4035.14 3354.22C4035.14 3356.73 4033.11 3358.77 4030.63 3358.77H3981.36C3980.19 3358.73 3979.07 3358.24 3978.25 3357.39C3977.43 3356.54 3976.98 3355.41 3976.98 3354.23C3976.98 3353.04 3977.43 3351.91 3978.25 3351.06C3979.07 3350.21 3980.19 3349.72 3981.36 3349.68H4030.63C4033.11 3349.68 4035.14 3351.72 4035.14 3354.22ZM4035.5 3369.01C4035.5 3371.52 4033.47 3373.55 4030.97 3373.55H3981.71C3980.51 3373.55 3979.37 3373.07 3978.52 3372.22C3977.67 3371.37 3977.2 3370.21 3977.2 3369.01C3977.2 3367.81 3977.67 3366.65 3978.52 3365.8C3979.37 3364.95 3980.51 3364.47 3981.71 3364.47H4030.97C4031.57 3364.47 4032.15 3364.58 4032.7 3364.81C4033.25 3365.04 4033.75 3365.37 4034.17 3365.79C4034.59 3366.21 4034.93 3366.71 4035.16 3367.27C4035.38 3367.82 4035.5 3368.41 4035.5 3369.01ZM4034.93 3384.46C4034.94 3385.06 4034.82 3385.65 4034.59 3386.2C4034.37 3386.75 4034.03 3387.26 4033.62 3387.68C4033.2 3388.1 4032.7 3388.44 4032.15 3388.67C4031.6 3388.9 4031.01 3389.01 4030.42 3389.01H3981.15C3980.55 3389.01 3979.97 3388.9 3979.42 3388.67C3978.87 3388.44 3978.37 3388.1 3977.95 3387.68C3977.53 3387.26 3977.2 3386.75 3976.98 3386.2C3976.75 3385.65 3976.64 3385.06 3976.64 3384.46C3976.64 3383.86 3976.76 3383.27 3976.98 3382.72C3977.21 3382.17 3977.54 3381.67 3977.96 3381.25C3978.38 3380.83 3978.88 3380.5 3979.42 3380.27C3979.97 3380.04 3980.56 3379.93 3981.15 3379.93H4030.42C4031.01 3379.92 4031.6 3380.04 4032.15 3380.27C4032.69 3380.5 4033.19 3380.83 4033.61 3381.25C4034.03 3381.67 4034.36 3382.17 4034.59 3382.72C4034.82 3383.27 4034.93 3383.86 4034.93 3384.46ZM4010.59 3233.64H4001.37L3995.83 3165H4016.12L4010.59 3233.64ZM3955.48 3262.99L3950.87 3271.02L3889 3241.53L3899.15 3223.84L3955.48 3262.99ZM3978.94 3240.6L3970.95 3245.23L3932.03 3188.57L3949.61 3178.36L3978.94 3240.6ZM4056.52 3263.92L4061.13 3271.98L4123 3242.46L4112.85 3224.8L4056.52 3263.92ZM4033.06 3239.09L4041.05 3243.73L4079.97 3187.06L4062.38 3176.85L4033.06 3239.09Z" fill="#FF96BA"/>
<path d="M2385.32 2670.78C2385.32 2643.97 2363.71 2622.23 2337.07 2622.23C2310.41 2622.23 2288.8 2643.97 2288.8 2670.78C2288.8 2686.54 2296.3 2706.81 2307.88 2720.88H2366.25C2377.82 2706.81 2385.32 2686.54 2385.32 2670.78ZM2353.16 2781H2320.98L2313.83 2770.96H2360.31L2353.16 2781ZM2366.14 2731.22C2366.14 2733.73 2364.11 2735.77 2361.63 2735.77H2312.36C2311.19 2735.73 2310.07 2735.24 2309.25 2734.39C2308.43 2733.54 2307.98 2732.41 2307.98 2731.23C2307.98 2730.04 2308.43 2728.91 2309.25 2728.06C2310.07 2727.21 2311.19 2726.72 2312.36 2726.68H2361.63C2364.11 2726.68 2366.14 2728.72 2366.14 2731.22ZM2366.5 2746.01C2366.5 2748.52 2364.47 2750.55 2361.97 2750.55H2312.71C2311.51 2750.55 2310.37 2750.07 2309.52 2749.22C2308.67 2748.37 2308.2 2747.21 2308.2 2746.01C2308.2 2744.81 2308.67 2743.65 2309.52 2742.8C2310.37 2741.95 2311.51 2741.47 2312.71 2741.47H2361.97C2362.57 2741.47 2363.15 2741.58 2363.7 2741.81C2364.25 2742.04 2364.75 2742.37 2365.17 2742.79C2365.59 2743.21 2365.93 2743.71 2366.16 2744.27C2366.38 2744.82 2366.5 2745.41 2366.5 2746.01ZM2365.93 2761.46C2365.94 2762.06 2365.82 2762.65 2365.59 2763.2C2365.37 2763.75 2365.03 2764.26 2364.62 2764.68C2364.2 2765.1 2363.7 2765.44 2363.15 2765.67C2362.6 2765.9 2362.01 2766.01 2361.42 2766.01H2312.15C2311.55 2766.01 2310.97 2765.9 2310.42 2765.67C2309.87 2765.44 2309.37 2765.1 2308.95 2764.68C2308.53 2764.26 2308.2 2763.75 2307.98 2763.2C2307.75 2762.65 2307.64 2762.06 2307.64 2761.46C2307.64 2760.86 2307.76 2760.27 2307.98 2759.72C2308.21 2759.17 2308.54 2758.67 2308.96 2758.25C2309.38 2757.83 2309.88 2757.5 2310.42 2757.27C2310.97 2757.04 2311.56 2756.93 2312.15 2756.93H2361.42C2362.01 2756.92 2362.6 2757.04 2363.15 2757.27C2363.69 2757.5 2364.19 2757.83 2364.61 2758.25C2365.03 2758.67 2365.36 2759.17 2365.59 2759.72C2365.82 2760.27 2365.93 2760.86 2365.93 2761.46ZM2341.59 2610.64H2332.37L2326.83 2542H2347.12L2341.59 2610.64ZM2286.48 2639.99L2281.87 2648.02L2220 2618.53L2230.15 2600.84L2286.48 2639.99ZM2309.94 2617.6L2301.95 2622.23L2263.03 2565.57L2280.61 2555.36L2309.94 2617.6ZM2387.52 2640.92L2392.13 2648.98L2454 2619.46L2443.85 2601.8L2387.52 2640.92ZM2364.06 2616.09L2372.05 2620.73L2410.97 2564.06L2393.38 2553.85L2364.06 2616.09Z" fill="#FF96BA"/>
<path d="M5268.32 3300.78C5268.32 3273.97 5246.71 3252.23 5220.07 3252.23C5193.41 3252.23 5171.8 3273.97 5171.8 3300.78C5171.8 3316.54 5179.3 3336.81 5190.88 3350.88H5249.25C5260.82 3336.81 5268.32 3316.54 5268.32 3300.78ZM5236.16 3411H5203.98L5196.83 3400.96H5243.31L5236.16 3411ZM5249.14 3361.22C5249.14 3363.73 5247.11 3365.77 5244.63 3365.77H5195.36C5194.19 3365.73 5193.07 3365.24 5192.25 3364.39C5191.43 3363.54 5190.98 3362.41 5190.98 3361.23C5190.98 3360.04 5191.43 3358.91 5192.25 3358.06C5193.07 3357.21 5194.19 3356.72 5195.36 3356.68H5244.63C5247.11 3356.68 5249.14 3358.72 5249.14 3361.22ZM5249.5 3376.01C5249.5 3378.52 5247.47 3380.55 5244.97 3380.55H5195.71C5194.51 3380.55 5193.37 3380.07 5192.52 3379.22C5191.67 3378.37 5191.2 3377.21 5191.2 3376.01C5191.2 3374.81 5191.67 3373.65 5192.52 3372.8C5193.37 3371.95 5194.51 3371.47 5195.71 3371.47H5244.97C5245.57 3371.47 5246.15 3371.58 5246.7 3371.81C5247.25 3372.04 5247.75 3372.37 5248.17 3372.79C5248.59 3373.21 5248.93 3373.71 5249.16 3374.27C5249.38 3374.82 5249.5 3375.41 5249.5 3376.01ZM5248.93 3391.46C5248.94 3392.06 5248.82 3392.65 5248.59 3393.2C5248.37 3393.75 5248.03 3394.26 5247.62 3394.68C5247.2 3395.1 5246.7 3395.44 5246.15 3395.67C5245.6 3395.9 5245.01 3396.01 5244.42 3396.01H5195.15C5194.55 3396.01 5193.97 3395.9 5193.42 3395.67C5192.87 3395.44 5192.37 3395.1 5191.95 3394.68C5191.53 3394.26 5191.2 3393.75 5190.98 3393.2C5190.75 3392.65 5190.64 3392.06 5190.64 3391.46C5190.64 3390.86 5190.76 3390.27 5190.98 3389.72C5191.21 3389.17 5191.54 3388.67 5191.96 3388.25C5192.38 3387.83 5192.88 3387.5 5193.42 3387.27C5193.97 3387.04 5194.56 3386.93 5195.15 3386.93H5244.42C5245.01 3386.92 5245.6 3387.04 5246.15 3387.27C5246.69 3387.5 5247.19 3387.83 5247.61 3388.25C5248.03 3388.67 5248.36 3389.17 5248.59 3389.72C5248.82 3390.27 5248.93 3390.86 5248.93 3391.46ZM5224.59 3240.64H5215.37L5209.83 3172H5230.12L5224.59 3240.64ZM5169.48 3269.99L5164.87 3278.02L5103 3248.53L5113.15 3230.84L5169.48 3269.99ZM5192.94 3247.6L5184.95 3252.23L5146.03 3195.57L5163.61 3185.36L5192.94 3247.6ZM5270.52 3270.92L5275.13 3278.98L5337 3249.46L5326.85 3231.8L5270.52 3270.92ZM5247.06 3246.09L5255.05 3250.73L5293.97 3194.06L5276.38 3183.85L5247.06 3246.09Z" fill="#FF96BA"/>
<path d="M4054.32 896.78C4054.32 869.969 4032.71 848.234 4006.07 848.234C3979.41 848.234 3957.8 869.969 3957.8 896.78C3957.8 912.542 3965.3 932.807 3976.88 946.879H4035.25C4046.82 932.809 4054.32 912.542 4054.32 896.78ZM4022.16 1007H3989.98L3982.83 996.962H4029.31L4022.16 1007ZM4035.14 957.224C4035.14 959.733 4033.11 961.769 4030.63 961.769H3981.36C3980.19 961.734 3979.07 961.24 3978.25 960.391C3977.43 959.543 3976.98 958.408 3976.98 957.226C3976.98 956.044 3977.43 954.908 3978.25 954.06C3979.07 953.212 3980.19 952.717 3981.36 952.682H4030.63C4033.11 952.682 4035.14 954.721 4035.14 957.224ZM4035.5 972.006C4035.5 974.515 4033.47 976.549 4030.97 976.549H3981.71C3980.51 976.549 3979.37 976.071 3978.52 975.219C3977.67 974.368 3977.2 973.213 3977.2 972.009C3977.2 970.805 3977.67 969.65 3978.52 968.799C3979.37 967.948 3980.51 967.469 3981.71 967.469H4030.97C4031.57 967.468 4032.15 967.584 4032.7 967.811C4033.25 968.038 4033.75 968.372 4034.17 968.793C4034.59 969.214 4034.93 969.715 4035.16 970.266C4035.38 970.817 4035.5 971.408 4035.5 972.006ZM4034.93 987.459C4034.94 988.057 4034.82 988.649 4034.59 989.201C4034.37 989.753 4034.03 990.256 4033.62 990.679C4033.2 991.102 4032.7 991.437 4032.15 991.667C4031.6 991.896 4031.01 992.014 4030.42 992.015H3981.15C3980.55 992.015 3979.97 991.897 3979.42 991.668C3978.87 991.439 3978.37 991.103 3977.95 990.679C3977.53 990.256 3977.2 989.754 3976.98 989.201C3976.75 988.649 3976.64 988.057 3976.64 987.459C3976.64 986.864 3976.76 986.274 3976.98 985.724C3977.21 985.174 3977.54 984.674 3977.96 984.253C3978.38 983.831 3978.88 983.498 3979.42 983.27C3979.97 983.042 3980.56 982.925 3981.15 982.926H4030.42C4031.01 982.925 4031.6 983.041 4032.15 983.269C4032.69 983.496 4033.19 983.83 4033.61 984.251C4034.03 984.672 4034.36 985.172 4034.59 985.723C4034.82 986.273 4034.93 986.863 4034.93 987.459ZM4010.59 836.641H4001.37L3995.83 768H4016.12L4010.59 836.641ZM3955.48 865.99L3950.87 874.021L3889 844.528L3899.15 826.842L3955.48 865.99ZM3978.94 843.596L3970.95 848.232L3932.03 791.565L3949.61 781.36L3978.94 843.596ZM4056.52 866.922L4061.13 874.977L4123 845.46L4112.85 827.797L4056.52 866.922ZM4033.06 842.09L4041.05 846.726L4079.97 790.06L4062.38 779.854L4033.06 842.09Z" fill="#FF96BA"/>
<path d="M2894.32 2098.78C2894.32 2071.97 2872.71 2050.23 2846.07 2050.23C2819.41 2050.23 2797.8 2071.97 2797.8 2098.78C2797.8 2114.54 2805.3 2134.81 2816.88 2148.88H2875.25C2886.82 2134.81 2894.32 2114.54 2894.32 2098.78ZM2862.16 2209H2829.98L2822.83 2198.96H2869.31L2862.16 2209ZM2875.14 2159.22C2875.14 2161.73 2873.11 2163.77 2870.63 2163.77H2821.36C2820.19 2163.73 2819.07 2163.24 2818.25 2162.39C2817.43 2161.54 2816.98 2160.41 2816.98 2159.23C2816.98 2158.04 2817.43 2156.91 2818.25 2156.06C2819.07 2155.21 2820.19 2154.72 2821.36 2154.68H2870.63C2873.11 2154.68 2875.14 2156.72 2875.14 2159.22ZM2875.5 2174.01C2875.5 2176.52 2873.47 2178.55 2870.97 2178.55H2821.71C2820.51 2178.55 2819.37 2178.07 2818.52 2177.22C2817.67 2176.37 2817.2 2175.21 2817.2 2174.01C2817.2 2172.81 2817.67 2171.65 2818.52 2170.8C2819.37 2169.95 2820.51 2169.47 2821.71 2169.47H2870.97C2871.57 2169.47 2872.15 2169.58 2872.7 2169.81C2873.25 2170.04 2873.75 2170.37 2874.17 2170.79C2874.59 2171.21 2874.93 2171.71 2875.16 2172.27C2875.38 2172.82 2875.5 2173.41 2875.5 2174.01ZM2874.93 2189.46C2874.94 2190.06 2874.82 2190.65 2874.59 2191.2C2874.37 2191.75 2874.03 2192.26 2873.62 2192.68C2873.2 2193.1 2872.7 2193.44 2872.15 2193.67C2871.6 2193.9 2871.01 2194.01 2870.42 2194.01H2821.15C2820.55 2194.01 2819.97 2193.9 2819.42 2193.67C2818.87 2193.44 2818.37 2193.1 2817.95 2192.68C2817.53 2192.26 2817.2 2191.75 2816.98 2191.2C2816.75 2190.65 2816.64 2190.06 2816.64 2189.46C2816.64 2188.86 2816.76 2188.27 2816.98 2187.72C2817.21 2187.17 2817.54 2186.67 2817.96 2186.25C2818.38 2185.83 2818.88 2185.5 2819.42 2185.27C2819.97 2185.04 2820.56 2184.93 2821.15 2184.93H2870.42C2871.01 2184.92 2871.6 2185.04 2872.15 2185.27C2872.69 2185.5 2873.19 2185.83 2873.61 2186.25C2874.03 2186.67 2874.36 2187.17 2874.59 2187.72C2874.82 2188.27 2874.93 2188.86 2874.93 2189.46ZM2850.59 2038.64H2841.37L2835.83 1970H2856.12L2850.59 2038.64ZM2795.48 2067.99L2790.87 2076.02L2729 2046.53L2739.15 2028.84L2795.48 2067.99ZM2818.94 2045.6L2810.95 2050.23L2772.03 1993.57L2789.61 1983.36L2818.94 2045.6ZM2896.52 2068.92L2901.13 2076.98L2963 2047.46L2952.85 2029.8L2896.52 2068.92ZM2873.06 2044.09L2881.05 2048.73L2919.97 1992.06L2902.38 1981.85L2873.06 2044.09Z" fill="#FF96BA"/>
<path d="M909.323 896.78C909.323 869.969 887.714 848.234 861.068 848.234C834.408 848.234 812.8 869.969 812.8 896.78C812.8 912.542 820.299 932.807 831.885 946.879H890.252C901.821 932.809 909.323 912.542 909.323 896.78ZM877.157 1007H844.984L837.832 996.962H884.309L877.157 1007ZM890.143 957.224C890.143 959.733 888.111 961.769 885.626 961.769H836.361C835.187 961.734 834.072 961.24 833.253 960.391C832.435 959.543 831.977 958.408 831.977 957.226C831.977 956.044 832.435 954.908 833.253 954.06C834.072 953.212 835.187 952.717 836.361 952.682H885.626C888.111 952.682 890.143 954.721 890.143 957.224ZM890.503 972.006C890.503 974.515 888.472 976.549 885.972 976.549H836.711C835.514 976.549 834.366 976.071 833.52 975.219C832.673 974.368 832.198 973.213 832.198 972.009C832.198 970.805 832.673 969.65 833.52 968.799C834.366 967.948 835.514 967.469 836.711 967.469H885.972C886.566 967.468 887.154 967.584 887.703 967.811C888.253 968.038 888.752 968.372 889.173 968.793C889.593 969.214 889.928 969.715 890.156 970.266C890.384 970.817 890.502 971.408 890.503 972.006ZM889.934 987.459C889.936 988.057 889.82 988.649 889.593 989.201C889.367 989.753 889.035 990.256 888.616 990.679C888.196 991.102 887.698 991.437 887.15 991.667C886.601 991.896 886.013 992.014 885.419 992.015H836.148C835.555 992.015 834.967 991.897 834.418 991.668C833.87 991.439 833.372 991.103 832.953 990.679C832.534 990.256 832.202 989.754 831.976 989.201C831.751 988.649 831.636 988.057 831.638 987.459C831.638 986.864 831.755 986.274 831.982 985.724C832.208 985.174 832.541 984.674 832.959 984.253C833.378 983.831 833.875 983.498 834.423 983.27C834.97 983.042 835.556 982.925 836.148 982.926H885.419C886.012 982.925 886.599 983.041 887.146 983.269C887.694 983.496 888.192 983.83 888.611 984.251C889.031 984.672 889.363 985.172 889.59 985.723C889.817 986.273 889.934 986.863 889.934 987.459ZM865.586 836.641H856.367L850.83 768H871.122L865.586 836.641ZM810.484 865.99L805.874 874.021L744 844.528L754.146 826.842L810.484 865.99ZM833.936 843.596L825.952 848.232L787.031 791.565L804.615 781.36L833.936 843.596ZM911.516 866.922L916.126 874.977L978 845.46L967.854 827.797L911.516 866.922ZM888.064 842.09L896.048 846.726L934.968 790.06L917.384 779.854L888.064 842.09Z" fill="#FF96BA"/>
<path d="M165.323 896.78C165.323 869.969 143.714 848.234 117.068 848.234C90.4085 848.234 68.8001 869.969 68.8001 896.78C68.8001 912.542 76.2989 932.807 87.8849 946.879H146.252C157.821 932.809 165.323 912.542 165.323 896.78ZM133.157 1007H100.984L93.8318 996.962H140.309L133.157 1007ZM146.143 957.224C146.143 959.733 144.111 961.769 141.626 961.769H92.3613C91.1867 961.734 90.0718 961.24 89.2533 960.391C88.4348 959.543 87.9769 958.408 87.9769 957.226C87.9769 956.044 88.4348 954.908 89.2533 954.06C90.0718 953.212 91.1867 952.717 92.3613 952.682H141.626C144.111 952.682 146.143 954.721 146.143 957.224ZM146.503 972.006C146.503 974.515 144.472 976.549 141.972 976.549H92.711C91.514 976.549 90.366 976.071 89.5195 975.219C88.6731 974.368 88.1976 973.213 88.1976 972.009C88.1976 970.805 88.6731 969.65 89.5195 968.799C90.366 967.948 91.514 967.469 92.711 967.469H141.972C142.566 967.468 143.154 967.584 143.703 967.811C144.253 968.038 144.752 968.372 145.173 968.793C145.593 969.214 145.928 969.715 146.156 970.266C146.384 970.817 146.502 971.408 146.503 972.006ZM145.934 987.459C145.936 988.057 145.82 988.649 145.593 989.201C145.367 989.753 145.035 990.256 144.616 990.679C144.196 991.102 143.698 991.437 143.15 991.667C142.601 991.896 142.013 992.014 141.419 992.015H92.1484C91.5546 992.015 90.9665 991.897 90.4181 991.668C89.8697 991.439 89.3717 991.103 88.9526 990.679C88.5336 990.256 88.2018 989.754 87.9763 989.201C87.7508 988.649 87.636 988.057 87.6385 987.459C87.6384 986.864 87.755 986.274 87.9817 985.724C88.2083 985.174 88.5406 984.674 88.9594 984.253C89.3782 983.831 89.8755 983.498 90.4226 983.27C90.9698 983.042 91.5563 982.925 92.1484 982.926H141.419C142.012 982.925 142.599 983.041 143.146 983.269C143.694 983.496 144.192 983.83 144.611 984.251C145.031 984.672 145.363 985.172 145.59 985.723C145.817 986.273 145.934 986.863 145.934 987.459ZM121.586 836.641H112.367L106.83 768H127.122L121.586 836.641ZM66.484 865.99L61.8743 874.021L0 844.528L10.1461 826.842L66.484 865.99ZM89.936 843.596L81.9522 848.232L43.0314 791.565L60.6148 781.36L89.936 843.596ZM167.516 866.922L172.126 874.977L234 845.46L223.854 827.797L167.516 866.922ZM144.064 842.09L152.048 846.726L190.968 790.06L173.384 779.854L144.064 842.09Z" fill="#FF96BA"/>
<path d="M1871.32 896.78C1871.32 869.969 1849.71 848.234 1823.07 848.234C1796.41 848.234 1774.8 869.969 1774.8 896.78C1774.8 912.542 1782.3 932.807 1793.88 946.879H1852.25C1863.82 932.809 1871.32 912.542 1871.32 896.78ZM1839.16 1007H1806.98L1799.83 996.962H1846.31L1839.16 1007ZM1852.14 957.224C1852.14 959.733 1850.11 961.769 1847.63 961.769H1798.36C1797.19 961.734 1796.07 961.24 1795.25 960.391C1794.43 959.543 1793.98 958.408 1793.98 957.226C1793.98 956.044 1794.43 954.908 1795.25 954.06C1796.07 953.212 1797.19 952.717 1798.36 952.682H1847.63C1850.11 952.682 1852.14 954.721 1852.14 957.224ZM1852.5 972.006C1852.5 974.515 1850.47 976.549 1847.97 976.549H1798.71C1797.51 976.549 1796.37 976.071 1795.52 975.219C1794.67 974.368 1794.2 973.213 1794.2 972.009C1794.2 970.805 1794.67 969.65 1795.52 968.799C1796.37 967.948 1797.51 967.469 1798.71 967.469H1847.97C1848.57 967.468 1849.15 967.584 1849.7 967.811C1850.25 968.038 1850.75 968.372 1851.17 968.793C1851.59 969.214 1851.93 969.715 1852.16 970.266C1852.38 970.817 1852.5 971.408 1852.5 972.006ZM1851.93 987.459C1851.94 988.057 1851.82 988.649 1851.59 989.201C1851.37 989.753 1851.03 990.256 1850.62 990.679C1850.2 991.102 1849.7 991.437 1849.15 991.667C1848.6 991.896 1848.01 992.014 1847.42 992.015H1798.15C1797.55 992.015 1796.97 991.897 1796.42 991.668C1795.87 991.439 1795.37 991.103 1794.95 990.679C1794.53 990.256 1794.2 989.754 1793.98 989.201C1793.75 988.649 1793.64 988.057 1793.64 987.459C1793.64 986.864 1793.76 986.274 1793.98 985.724C1794.21 985.174 1794.54 984.674 1794.96 984.253C1795.38 983.831 1795.88 983.498 1796.42 983.27C1796.97 983.042 1797.56 982.925 1798.15 982.926H1847.42C1848.01 982.925 1848.6 983.041 1849.15 983.269C1849.69 983.496 1850.19 983.83 1850.61 984.251C1851.03 984.672 1851.36 985.172 1851.59 985.723C1851.82 986.273 1851.93 986.863 1851.93 987.459ZM1827.59 836.641H1818.37L1812.83 768H1833.12L1827.59 836.641ZM1772.48 865.99L1767.87 874.021L1706 844.528L1716.15 826.842L1772.48 865.99ZM1795.94 843.596L1787.95 848.232L1749.03 791.565L1766.61 781.36L1795.94 843.596ZM1873.52 866.922L1878.13 874.977L1940 845.46L1929.85 827.797L1873.52 866.922ZM1850.06 842.09L1858.05 846.726L1896.97 790.06L1879.38 779.854L1850.06 842.09Z" fill="#FF96BA"/>
<path d="M1418.32 1475.78C1418.32 1448.97 1396.71 1427.23 1370.07 1427.23C1343.41 1427.23 1321.8 1448.97 1321.8 1475.78C1321.8 1491.54 1329.3 1511.81 1340.88 1525.88H1399.25C1410.82 1511.81 1418.32 1491.54 1418.32 1475.78ZM1386.16 1586H1353.98L1346.83 1575.96H1393.31L1386.16 1586ZM1399.14 1536.22C1399.14 1538.73 1397.11 1540.77 1394.63 1540.77H1345.36C1344.19 1540.73 1343.07 1540.24 1342.25 1539.39C1341.43 1538.54 1340.98 1537.41 1340.98 1536.23C1340.98 1535.04 1341.43 1533.91 1342.25 1533.06C1343.07 1532.21 1344.19 1531.72 1345.36 1531.68H1394.63C1397.11 1531.68 1399.14 1533.72 1399.14 1536.22ZM1399.5 1551.01C1399.5 1553.52 1397.47 1555.55 1394.97 1555.55H1345.71C1344.51 1555.55 1343.37 1555.07 1342.52 1554.22C1341.67 1553.37 1341.2 1552.21 1341.2 1551.01C1341.2 1549.81 1341.67 1548.65 1342.52 1547.8C1343.37 1546.95 1344.51 1546.47 1345.71 1546.47H1394.97C1395.57 1546.47 1396.15 1546.58 1396.7 1546.81C1397.25 1547.04 1397.75 1547.37 1398.17 1547.79C1398.59 1548.21 1398.93 1548.71 1399.16 1549.27C1399.38 1549.82 1399.5 1550.41 1399.5 1551.01ZM1398.93 1566.46C1398.94 1567.06 1398.82 1567.65 1398.59 1568.2C1398.37 1568.75 1398.03 1569.26 1397.62 1569.68C1397.2 1570.1 1396.7 1570.44 1396.15 1570.67C1395.6 1570.9 1395.01 1571.01 1394.42 1571.01H1345.15C1344.55 1571.01 1343.97 1570.9 1343.42 1570.67C1342.87 1570.44 1342.37 1570.1 1341.95 1569.68C1341.53 1569.26 1341.2 1568.75 1340.98 1568.2C1340.75 1567.65 1340.64 1567.06 1340.64 1566.46C1340.64 1565.86 1340.76 1565.27 1340.98 1564.72C1341.21 1564.17 1341.54 1563.67 1341.96 1563.25C1342.38 1562.83 1342.88 1562.5 1343.42 1562.27C1343.97 1562.04 1344.56 1561.93 1345.15 1561.93H1394.42C1395.01 1561.92 1395.6 1562.04 1396.15 1562.27C1396.69 1562.5 1397.19 1562.83 1397.61 1563.25C1398.03 1563.67 1398.36 1564.17 1398.59 1564.72C1398.82 1565.27 1398.93 1565.86 1398.93 1566.46ZM1374.59 1415.64H1365.37L1359.83 1347H1380.12L1374.59 1415.64ZM1319.48 1444.99L1314.87 1453.02L1253 1423.53L1263.15 1405.84L1319.48 1444.99ZM1342.94 1422.6L1334.95 1427.23L1296.03 1370.57L1313.61 1360.36L1342.94 1422.6ZM1420.52 1445.92L1425.13 1453.98L1487 1424.46L1476.85 1406.8L1420.52 1445.92ZM1397.06 1421.09L1405.05 1425.73L1443.97 1369.06L1426.38 1358.85L1397.06 1421.09Z" fill="#FF96BA"/>
</svg>
